<?xml version="1.0" encoding="utf-8"?>
<!-- Generator: Adobe Illustrator 21.0.0, SVG Export Plug-In . SVG Version: 6.00 Build 0)  -->
<svg version="1.1" xmlns="http://www.w3.org/2000/svg" xmlns:xlink="http://www.w3.org/1999/xlink" x="0px" y="0px"
	 viewBox="0 0 750 500" style="enable-background:new 0 0 750 500;" xml:space="preserve">
<style type="text/css">
	.st0{display:none;}
	.st1{display:inline;fill:#96E4FF;}
	.st2{opacity:0.7;fill:url(#SVGID_1_);}
	.st3{opacity:0.7;}
	.st4{fill:#FFFFFF;}
	.st5{clip-path:url(#SVGID_3_);}
	.st6{fill:#6CA8BC;}
	.st7{fill:#5195A8;}
	.st8{fill:#468094;}
	.st9{fill:#94CBCA;}
	.st10{fill:#7ABCCE;}
	.st11{fill:#BD6C67;}
	.st12{fill:#422C4F;}
	.st13{fill:#A64F5A;}
	.st14{fill:#8C404C;}
	.st15{fill:#93E3EF;}
	.st16{fill:none;}
	.st17{fill:#7FD4DD;}
	.st18{fill:#614872;}
	.st19{fill:#454F6B;}
	.st20{fill:#6BC5FF;}
	.st21{fill:#5DABFF;}
	.st22{fill:#EBA58E;}
	.st23{fill:#E78882;}
	.st24{fill:#6A3649;}
	.st25{fill:#8E5A61;}
	.st26{fill:#F5D896;}
	.st27{fill:#FCB072;}
	.st28{fill:#E68799;}
	.st29{fill:#E36B85;}
	.st30{fill:#F0BF6C;}
	.st31{fill:#EBA25D;}
	.st32{fill:#495375;}
	.st33{fill:#5A678C;}
	.st34{fill:#7285A5;}
	.st35{fill:#52969E;}
	.st36{fill:#87D38C;}
	.st37{fill:#62B29A;}
	.st38{fill:#457F97;}
</style>
<g id="BACKGROUND" class="st0">
	<rect class="st1" width="750" height="500"/>
</g>
<g id="OBJECT">
	<g>
		<g>
			<g>
				<radialGradient id="SVGID_1_" cx="375" cy="249.6156" r="226.9443" gradientUnits="userSpaceOnUse">
					<stop  offset="0.4654" style="stop-color:#FFFFFF;stop-opacity:0"/>
					<stop  offset="1" style="stop-color:#FFFFFF"/>
				</radialGradient>
				<circle class="st2" cx="375" cy="249.6" r="226.9"/>
				<g class="st3">
					<g>
						<path class="st4" d="M192.2,237.3c-1,0-2.1-0.1-3.1-0.3c-10.2-1.7-17-11.4-15.3-21.6c8-47,32.4-90,68.9-121.1
							c7.9-6.7,19.7-5.8,26.4,2.1c6.7,7.9,5.8,19.7-2.1,26.4c-29.8,25.4-49.8,60.6-56.3,98.9C209.1,230.8,201.2,237.3,192.2,237.3z"
							/>
					</g>
					<g>
						<path class="st4" d="M302.9,97.5c-7.3,0-14.2-4.3-17.2-11.4c-4-9.5,0.4-20.5,9.9-24.5c7.4-3.1,15.1-5.9,22.8-8.1
							c9.9-2.9,20.3,2.8,23.1,12.8c2.9,9.9-2.8,20.3-12.8,23.1c-6.3,1.8-12.5,4-18.6,6.6C307.8,97,305.3,97.5,302.9,97.5z"/>
					</g>
				</g>
			</g>
			<g>
				<g>
					<defs>
						<path id="SVGID_2_" d="M520.9,228.7c1.6-16.9,3.2-34.1,0.9-50.9c-2.3-16.9-8.7-33.7-21-45.5c-11.6-11.2-28-17.2-44.1-16.1
							c-16.1,1.1-35.2,9.9-45.1,22.6c8-28.2-8.5-60.7-35.4-72.1c-27-11.3-61-1-78.1,22.8c-17.1,23.8-16.4,58.4,0.5,82.3
							c-9,9.7-19.3,21.6-28.3,31.2c0,8.3-2.3,17.5-2.3,25.8c-20.2,0.4-39.5,14.1-47.1,32.8s-3,41.7,11.2,56.1
							c-5.8,32.1-9.8,65-11.6,98c40.5,37.7,94.8,60.8,154.5,60.8c90.8,0,169.2-53.4,205.5-130.5c-14.9-35.9-29.9-71.7-44.6-107.7
							C530.3,235.6,526.5,231.5,520.9,228.7z"/>
					</defs>
					<clipPath id="SVGID_3_">
						<use xlink:href="#SVGID_2_"  style="overflow:visible;"/>
					</clipPath>
					<g class="st5">
						<g>
							<g>
								<g>
									<path class="st6" d="M411.4,214.1c-1.2-3.6-3.9-6.5-7.4-8l-35-15.3l-19.7,5.1l-19.7-5.1l-35,15.3c-3.5,1.5-6.2,4.4-7.4,8
										l-23.7,69.8l27.3,6.2V369h58.4h58.4v-78.9l27.3-6.2L411.4,214.1z"/>
									<g>
										<path class="st7" d="M294.7,275.7c1.7-4.2,3.2-9.2,4.2-14.7c1-5.5,1.5-11.4,1.4-17.3c-0.1-5.9-0.8-11.8-2-17.3
											c-1.2-5.4-2.8-10.4-4.7-14.5c1,9,2.2,20.4,2.4,31.9C296.2,255.2,295.4,266.7,294.7,275.7z"/>
									</g>
									<g>
										<path class="st7" d="M403.8,275.7c-1.7-4.2-3.2-9.2-4.2-14.7c-1-5.5-1.5-11.4-1.4-17.3c0.1-5.9,0.8-11.8,2-17.3
											c1.2-5.4,2.8-10.4,4.7-14.5c-1,9-2.2,20.4-2.4,31.9C402.4,255.2,403.2,266.7,403.8,275.7z"/>
									</g>
									<g>
										<polygon class="st8" points="349.3,195.9 349.3,243.8 344,212.5 										"/>
										<circle class="st9" cx="355.3" cy="219" r="2.5"/>
										<circle class="st9" cx="355.3" cy="235.3" r="2.5"/>
									</g>
								</g>
								<g>
									<path class="st10" d="M334.4,186.8l-4.8,4c3.6,12.7,14.5,21.7,14.5,21.7l5.3-16.6L334.4,186.8z"/>
									<path class="st10" d="M363.2,186l5.8,4.8c-3.6,12.7-14.5,21.7-14.5,21.7l-5.3-16.6L363.2,186z"/>
								</g>
								<g>
									<g>
										<path class="st7" d="M392.7,277.6c-6.2,0.3-13.3,0.3-20.9-0.3c-7.5-0.6-15.5-1.9-23.2-3.8c-7.8-2-15.4-4.6-22.3-7.6
											c-6.9-3-13.2-6.4-18.5-9.6c4.8,4,10.7,8,17.6,11.6c6.8,3.5,14.6,6.5,22.5,8.5c8,2,16.1,3,23.8,3.2
											C379.4,279.6,386.6,278.8,392.7,277.6z"/>
									</g>
									<g>
										<path class="st7" d="M390.7,257.7c-3.2,1.7-6.9,3.6-11,5.1c-4,1.6-8.4,2.9-12.9,3.9c-4.5,0.9-9,1.5-13.4,1.7
											c-4.3,0.2-8.5,0-12.1-0.3c3.4,1.4,7.5,2.5,12,2.9c4.5,0.4,9.4,0.1,14.2-0.9c4.7-1,9.3-2.7,13.3-4.9
											C384.9,263,388.2,260.3,390.7,257.7z"/>
									</g>
								</g>
							</g>
							<g>
								<g>
									<polygon class="st11" points="334.4,173.8 334.4,186.8 349.3,195.9 363.2,186 363.2,173.8 									"/>
									<path class="st12" d="M357.8,183c1.9-0.8,3.7-1.8,5.4-2.9v-6.3h-28.8v6.9c3.3,2.3,7,4,11,4.5
										C349.6,185.7,353.9,184.7,357.8,183z"/>
								</g>
								<g>
									<g>
										<g>
											<circle class="st13" cx="312.2" cy="155.5" r="10.2"/>
											<circle class="st14" cx="312.2" cy="155.5" r="6.6"/>
										</g>
										<g>
											<circle class="st13" cx="382" cy="155.5" r="10.2"/>
											<circle class="st14" cx="382" cy="155.5" r="6.6"/>
										</g>
									</g>
									<path class="st12" d="M317.6,155.5c-3.6-1.3-6.7-3.9-8.7-7.2c-2-3.3-2.8-7.3-2.3-11.1c-4-2.1-6.8-6.6-7.1-11.1
										c-0.3-4.5,2-9.1,5.7-11.7c-5.1-4.7-6.2-13.6-2.8-19.7c3.3-6.1,11-9.5,17.8-7.8c3.1-8.5,11.3-14.8,20.3-15.5
										c9-0.7,18.2,4.2,22.7,12c5.9-1.6,12.7-0.2,16.6,4.5c4,4.6,5,11.6,2.5,17.1c5.6,1.5,10.7,6.4,11.9,12.1
										c1.2,5.7-1.2,12-5.8,15.5c-0.3,6.8-1.5,14.3-6.4,19c-2.9,2.8-6.7,4.2-10.5,5.3C354.2,162.1,334.4,161.7,317.6,155.5z"/>
									<path class="st11" d="M355.9,108.6c-3,4.1-7.6,7-12.6,7.9c-5,0.9-10.1-0.5-14.4-3.2c0.2,4.1-0.9,8.3-3.2,11.6
										c-2.3,3.4-5.9,6-9.8,7.3v15.6c0,17.3,14,31.2,31.2,31.2l0,0c17.3,0,31.2-14,31.2-31.2v-15.6c0-2.1-0.2-4.1-0.6-6
										c-0.2,0-0.5-0.1-0.7-0.1C367.8,124.2,359.5,117.3,355.9,108.6z"/>
									<g>
										<g>
											<g>
												<path class="st12" d="M332,128c-3.2,0.6-5.7,2.7-7.1,5.4l15.6-3C338.3,128.4,335.2,127.4,332,128z"/>
											</g>
											<circle class="st12" cx="332.8" cy="139" r="2.3"/>
										</g>
										<g>
											<g>
												<path class="st12" d="M362.2,128c3.2,0.6,5.7,2.7,7.1,5.4l-15.6-3C355.9,128.4,359,127.4,362.2,128z"/>
											</g>
											<circle class="st12" cx="361.5" cy="139" r="2.3"/>
										</g>
									</g>
									<path class="st13" d="M330.1,118c4.2,2.5,9.3,3.5,14,2.2c4.7-1.3,8.8-4.6,11-8.9c1.7,6.1,6.4,12.3,11.9,15.3
										c3.4,1.9,7.4,2.8,11.3,2.8c-0.1-1-0.2-2-0.4-3c-0.2,0-0.5-0.1-0.7-0.1c-9.2-2-17.5-8.9-21.2-17.6c-3,4.1-7.6,7-12.6,7.9
										c-5,0.9-10.1-0.5-14.4-3.2c0.2,4.1-0.9,8.3-3.2,11.6c-2.3,3.4-5.9,6-9.8,7.3v3.8C322.8,132.4,328.2,125.7,330.1,118z"/>
									<g>
										<g>
											<path class="st15" d="M321.5,171.8c6.8,5.6,16,8.7,25.5,8.7h0c9.2,0,18-2.9,24.8-8.1c4.1-3.2,6.5-7.6,6.6-12.3l0.3-12.6
												c-20,7-43,7.5-63.4,1.6l-0.4,11.6c0.4,4.1,2.6,8,6.2,10.9L321.5,171.8z"/>
											<polygon class="st16" points="315.3,150.8 315.3,149 315.3,150.8 											"/>
											<path class="st4" d="M315.3,144.6v4.4c20.4,6,43.4,5.4,63.4-1.6l0.1-4.4C358.9,150,335.8,150.6,315.3,144.6z"/>
										</g>
										<g>
											<g>
												<path class="st17" d="M371.7,157.2c-3.5,0.8-7.5,1.6-11.7,2.2c-4.2,0.6-8.7,1-13.3,1c-4.5,0-9-0.2-13.3-0.7
													c-4.3-0.5-8.2-1.2-11.7-1.9c3.1,1.8,7,3.4,11.3,4.4c4.3,1.1,9,1.7,13.8,1.6c4.7-0.1,9.5-0.7,13.7-1.9
													C364.8,160.7,368.7,159,371.7,157.2z"/>
											</g>
											<g>
												<path class="st17" d="M366.4,165.5c-2.7,0.6-5.9,1.3-9.2,1.7c-3.3,0.5-6.9,0.8-10.4,0.8c-3.5,0-7.1-0.2-10.4-0.6
													c-3.3-0.4-6.5-1-9.2-1.5c2.4,1.4,5.5,2.6,8.9,3.5c3.4,0.9,7.1,1.3,10.8,1.3c3.7,0,7.4-0.6,10.8-1.5
													C360.9,168.3,364,167,366.4,165.5z"/>
											</g>
										</g>
									</g>
									<g>
										<g>
											<path class="st18" d="M324.5,92.3c-1.3,0.8-2.7,2.3-3.5,4.1c-0.9,1.8-1.2,4.1-0.9,6.3c0.4,2.2,1.5,4.2,2.9,5.6
												c1.4,1.5,3.2,2.4,4.7,2.7c-1.4-0.8-2.8-2-3.9-3.4c-1.1-1.5-2-3.3-2.3-5.1c-0.3-1.9-0.1-3.9,0.4-5.6
												C322.6,95,323.5,93.5,324.5,92.3z"/>
										</g>
										<g>
											<path class="st18" d="M379.8,117c-3.1-0.8-6.9-2.4-10.2-4.9c-3.3-2.4-5.8-5.7-7.5-8.5c0.4,1.6,1.1,3.4,2.2,5.1
												c1.1,1.7,2.6,3.3,4.3,4.6c1.7,1.3,3.7,2.3,5.6,2.9C376.3,116.9,378.2,117.1,379.8,117z"/>
										</g>
										<g>
											<path class="st18" d="M377.2,111.2c-0.9-0.5-2.1-1.3-3.1-2.1c-1.1-0.9-2-1.9-2.7-2.7c0.4,1,1.3,2.2,2.4,3.1
												C374.8,110.4,376.2,111,377.2,111.2z"/>
										</g>
										<g>
											<path class="st18" d="M311.7,129.3c2.8-1,6.1-3.3,8.5-6.4c2.4-3.1,3.8-6.9,4-9.9c-1.1,2.7-2.8,6.1-5.1,9
												C316.9,125,314.1,127.5,311.7,129.3z"/>
										</g>
										<g>
											<path class="st18" d="M310.9,120.3c0.9-0.3,2-0.9,3-1.7c0.9-0.8,1.7-1.9,2.1-2.7c-0.6,0.7-1.5,1.6-2.4,2.4
												C312.6,119,311.6,119.7,310.9,120.3z"/>
										</g>
										<g>
											<path class="st18" d="M353.9,104.3c1.2-1.4,2.3-3.5,2.7-5.8c0.4-2.4,0.2-5-0.8-7.4c-1-2.4-2.8-4.4-4.8-5.8
												c-2-1.4-4.2-2-6.1-2.1c1.8,0.7,3.6,1.7,5.3,3.2c1.6,1.4,3.1,3.3,4,5.4c0.9,2.1,1.2,4.4,1.1,6.6
												C355.2,100.6,354.6,102.6,353.9,104.3z"/>
										</g>
										<g>
											<path class="st18" d="M367.4,91.8c0-1.2-0.3-2.7-1-4.1c-0.7-1.4-1.7-2.8-3-3.8c-1.3-1.1-2.9-1.8-4.4-2.1
												c-1.5-0.3-3-0.3-4.2-0.1c2.5,0,5.6,0.9,8,2.8C365.3,86.5,366.8,89.4,367.4,91.8z"/>
										</g>
									</g>
								</g>
							</g>
						</g>
						<g>
							<g>
								<path class="st12" d="M318.6,442.9c-0.3-4-0.4-8-0.2-12.1c-20.6,0.7-42.9,0.6-63.1-3.1c0,3.7,0,7.4-0.2,11.1
									C274.4,449,298.2,450.5,318.6,442.9z"/>
								<path class="st19" d="M255.1,438.8c-0.4,8.5-1.4,17.1-3,25.5c21.8,11,48.6,12.8,71.1,3.4c-2.4-8.1-4-16.4-4.6-24.8
									C298.2,450.5,274.4,449,255.1,438.8z"/>
							</g>
							<g>
								<g>
									<path class="st20" d="M324.5,327.4L288,315.8h-1.2h-1.2l-36.4,11.5l4.9,52.3l-0.9,53.2l0,0c21.7,7.9,45.5,7.9,67.1,0l0,0
										l-0.9-53.2L324.5,327.4z"/>
									<path class="st21" d="M249.9,334.6l2.1,3.9c4,7.5,6.1,15.8,6.1,24.3v22.6c0,2.7,1.1,5.2,3.1,7.1l4.6,4.4v9.4l44.2,19v7.4
										h-1.9c-4.9,0-9.8-0.8-14.5-2.2l-40.1-12.7l0.6-38L249.9,334.6z"/>
								</g>
								<g>
									<g>
										<path class="st21" d="M301.8,324.8c-1.8,1.7-4,3.3-6.6,4.5c-2.6,1.2-5.6,1.9-8.6,2c-3,0.1-6-0.6-8.6-1.7
											c-2.7-1.1-5-2.6-6.8-4.2c1.2,2.1,3.3,4.3,6,5.8c2.7,1.6,6.1,2.5,9.4,2.4c3.4-0.1,6.7-1.1,9.3-2.8
											C298.7,329.2,300.6,327,301.8,324.8z"/>
									</g>
									<g>
										<path class="st21" d="M309.8,367.5c-4-0.9-8.6-2-13.3-3.5c-4.7-1.6-9.5-3.6-14.1-6c-4.6-2.4-9-5.2-12.9-8.2
											c-3.9-3-7.4-6.1-10.4-8.9c2,3.6,4.8,7.5,8.5,11.1c3.7,3.6,8.2,6.9,13,9.5c4.9,2.6,10.1,4.4,15.2,5.3
											C300.9,367.8,305.7,368,309.8,367.5z"/>
									</g>
									<g>
										<path class="st21" d="M314.4,358c-5,0.1-11.4,0.1-17.8-0.8c-6.3-0.8-12.5-2.4-17.4-3.8c4.1,2.8,10.4,5.4,17,6.2
											C303,360.5,309.7,359.7,314.4,358z"/>
									</g>
									<g>
										<path class="st21" d="M312.9,391.4c-6.3,0.2-14.2,0-22-1.5c-7.8-1.4-15.3-4-21.1-6.4c2.4,2,5.5,4,9,5.7
											c3.5,1.6,7.5,2.9,11.6,3.7c4.1,0.7,8.3,0.9,12.2,0.6C306.3,393.2,309.9,392.4,312.9,391.4z"/>
									</g>
									<g>
										<path class="st21" d="M314.5,428.3c-7.5,0.3-17.1,0.9-26.7,0.7c-9.6-0.1-19.2-1-26.7-1.6c6.9,2.9,16.7,5,26.6,5.2
											C297.6,432.7,307.4,431,314.5,428.3z"/>
									</g>
								</g>
							</g>
							<g>
								<path class="st22" d="M275,310.2v10.5c0,1.8,0.9,3.4,2.4,4.4l0.9,0.5c5.6,3.5,12.7,3.4,18.1-0.4h0c1.4-1,2.2-2.6,2.2-4.3
									v-11.8L275,310.2z"/>
								<path class="st12" d="M283,321.4c4.3-0.2,8.4-1.7,11.9-4.2c1.4-1,2.7-2.2,3.8-3.5v-4.5l-23.6,1v10.1
									C277.6,321.2,280.3,321.6,283,321.4z"/>
							</g>
							<g>
								<g>
									<g>
										
											<ellipse transform="matrix(0.9857 -0.1687 0.1687 0.9857 -43.5474 57.6772)" class="st22" cx="317.7" cy="285.1" rx="8.2" ry="8.2"/>
										
											<ellipse transform="matrix(0.9857 -0.1687 0.1687 0.9857 -43.5462 57.6753)" class="st23" cx="317.7" cy="285.1" rx="5.2" ry="5.2"/>
									</g>
									<g>
										
											<ellipse transform="matrix(0.9857 -0.1687 0.1687 0.9857 -46.6637 45.6782)" class="st22" cx="245.5" cy="297.5" rx="8.2" ry="8.2"/>
										
											<ellipse transform="matrix(0.9857 -0.1687 0.1687 0.9857 -46.6663 45.6812)" class="st23" cx="245.5" cy="297.5" rx="5.2" ry="5.2"/>
									</g>
								</g>
								<g>
									<path class="st24" d="M252.4,300c-7-4-11.6-11.3-13.5-19c-2.8-11-0.3-23.5,7.4-32.1c7.7-8.5,20.5-12.5,31.4-8.9
										c6.5-5.9,18.4-6.1,25.6-1.1c6.6,4.5,9.6,12.5,11.9,20.1c1.4,4.6,2.6,9.3,2.8,14.2c0.2,4.8-0.7,9.8-3.4,13.9
										c-2.4,3.7-6.2,6.5-10.2,8.5c-4,2-8.4,3.2-12.7,4.5c-8.7,2.5-17.7,5-26.7,3.9C261.2,303.3,255.8,301.9,252.4,300z"/>
									<g>
										<g>
											<path class="st25" d="M280.3,252.6c-2,2.3-4.4,4.9-7.1,7.4c-2.7,2.5-5.7,5-8.9,7.1c-3.2,2.2-6.6,4.1-10,5.6
												c-3.3,1.6-6.6,2.8-9.5,3.8c3.1,0,6.7-0.6,10.3-1.7c3.7-1.2,7.4-2.9,10.8-5.2c3.4-2.3,6.5-5.1,8.9-8.1
												C277.3,258.6,279.1,255.5,280.3,252.6z"/>
										</g>
										<g>
											<path class="st25" d="M255.9,255.8c3.1,0.7,7.4,0.8,11.5-0.1c4.1-0.9,8-2.7,10.5-4.6c-3,1-6.9,2.3-10.8,3.2
												C263.1,255,259.1,255.5,255.9,255.8z"/>
										</g>
										<g>
											<path class="st25" d="M305.3,258.9c-3.1,0.2-6.9,0-10.6-1.1c-3.7-1-7.1-2.9-9.6-4.6c1.8,2.4,5.3,4.9,9.2,6
												C298.2,260.3,302.4,260,305.3,258.9z"/>
										</g>
										<g>
											<path class="st25" d="M301.6,250.6c-2.3,0.3-5.1,0.6-8,0.5c-2.9-0.1-5.8-0.6-8-1c2,1.1,4.9,2,8,2.1
												C296.6,252.3,299.6,251.6,301.6,250.6z"/>
										</g>
									</g>
								</g>
								<path class="st22" d="M282.4,260.2c-8.5,11.3-21.1,19.6-34.8,22.9c0.1,1,0.2,1.9,0.4,2.9l0.6,3.4
									c3,17.6,19.7,29.4,37.3,26.4l0,0c17.6-3,29.4-19.7,26.4-37.3l-0.6-3.4c-0.4-2.5-1.1-4.8-2-7
									C299.9,268.9,290.1,266.2,282.4,260.2z"/>
								<g>
									<g>
										<path class="st4" d="M282.3,291.2c-10.5,1.8-22.9,2.4-27.3,1.1l-0.2,3.8c5,1.1,17.4,0.4,28.1-1.4
											c10.6-1.8,22.6-5.3,26.9-8l-1.4-3.6C304.7,285.8,292.8,289.4,282.3,291.2z"/>
										<path class="st15" d="M254.8,296.1l-0.1,1.4c-0.2,5.2,2.1,10.2,6.2,13.4c6.9,5.4,15.8,7.6,24.5,6.1l1.2-0.2l1.2-0.2
											c8.6-1.5,16.3-6.5,21.1-13.9c2.8-4.4,3.4-9.8,1.4-14.7l-0.5-1.3c-4.3,2.7-16.3,6.2-26.9,8
											C272.3,296.5,259.8,297.2,254.8,296.1z"/>
									</g>
									<g>
										<g>
											<path class="st17" d="M302.7,294.6c-5.5,1.7-12.5,3.8-19.7,5c-7.2,1.3-14.5,1.6-20.2,1.8c5.5,1.6,13.2,2.2,20.7,0.9
												C291,301,298.1,297.9,302.7,294.6z"/>
										</g>
										<g>
											<path class="st17" d="M300.6,302.4c-4.5,1.6-10.3,3.3-16.3,4.3c-6,1-12.1,1.3-16.9,1.3c4.6,1.2,11,1.6,17.2,0.5
												C290.8,307.5,296.6,305,300.6,302.4z"/>
										</g>
									</g>
								</g>
								<path class="st23" d="M282.5,262.1c3.5,4.5,9.2,7.6,14.9,8.5c4.2,0.6,8.6,0,12.5-1.7c-0.1-0.2-0.2-0.5-0.3-0.7
									c-9.6,0.8-19.5-2-27.2-7.9c-8.5,11.3-21.1,19.6-34.8,22.9c0.1,1,0.2,1.9,0.4,2.9l0.2,0.9c6.9-1.4,13.5-4,19.4-7.8
									C273.9,274.9,279.3,269,282.5,262.1z"/>
								<g>
									<g>
										<g>
											<path class="st24" d="M265.7,278.1c-3,1.1-5.2,3.6-6.1,6.5l14.9-5.5C272,277.4,268.7,277,265.7,278.1z"/>
										</g>
										
											<ellipse transform="matrix(0.9857 -0.1687 0.1687 0.9857 -44.6863 49.3403)" class="st12" cx="268.1" cy="287.7" rx="2.3" ry="2.3"/>
									</g>
									<g>
										<g>
											<path class="st24" d="M292.2,273.6c3.3,0.1,6.1,1.7,7.9,4.1l-15.9-0.3C286.1,275,289,273.5,292.2,273.6z"/>
										</g>
										
											<ellipse transform="matrix(0.9857 -0.1687 0.1687 0.9857 -43.6071 53.5195)" class="st12" cx="293.2" cy="283.4" rx="2.3" ry="2.3"/>
									</g>
								</g>
							</g>
							<g>
								<g>
									<path class="st22" d="M253.8,375.5l0.2,14.4l40.7,23.7l9.6-4.1c2.9-1.2,6.1-0.9,8.7,0.8l5.6,3.7c2.6,1.7,3.9,4.7,3.5,7.8v0
										c-0.5,3.4-3.2,6.1-6.6,6.6l-4.6,0.7c-3.1,0.5-6.2,0.3-9.2-0.5l-9.8-2.6l-47.6-18.2c-5.4-2.1-8.9-7.3-8.7-13l0.7-24
										L253.8,375.5z"/>
									<path class="st12" d="M253.9,384.1l-0.1-8.6l-17.4-4.9l-0.2,7.3C241.2,381.8,247.5,383.9,253.9,384.1z"/>
									<path class="st23" d="M254,389.8l-12.4,5.7l2.1-2.4C246.2,390.1,250.2,388.9,254,389.8L254,389.8z"/>
								</g>
								<path class="st20" d="M249.3,327.4L249.3,327.4c-4.3,1.1-7.7,4.5-8.8,8.9l-9.4,36.4l5.7,2.7c5.5,2.6,11.4,4,17.4,4.3l0,0
									l0.5-32c0.1-5.4-1-10.8-3.3-15.7L249.3,327.4z"/>
							</g>
						</g>
						<g>
							<g>
								<path class="st19" d="M471.5,421.4c-19.1,3.3-39.8,0.4-55.7-10.4c-2.8,14.9-5.2,30.1-4.1,45c38,3.5,77.1-1.8,113.5-13.3
									c2.8-14.6,2-29.6-2.1-43.9C507.3,409.5,490.1,418.1,471.5,421.4z"/>
								<path class="st12" d="M471.5,421.4c18.6-3.2,35.9-11.9,51.6-22.5c-0.9-3.1-1.9-6.1-3.1-9l-101.7,8
									c-0.8,4.4-1.7,8.8-2.5,13.2C431.7,421.8,452.4,424.7,471.5,421.4z"/>
							</g>
							<g>
								<path class="st24" d="M507.7,261c-8.1-21.1-11.1-44.1-8.8-66.6c0.9-8.2,2.4-16.5,2.4-24.7c0-8.3-1.8-16.9-6.9-23.4
									c-5.1-6.5-14.8-11.9-22.7-9.3c-6.9-5.7-16.6-7.4-25.2-5.3c-8.7,2.1-16.3,7.7-21.6,14.8c-6.7,8.8-10.2,20.1-9.6,31.2
									c0.6,11,5,21.4,8,32.1c5.1,18.6,5.6,38.5,1.5,57.4C450.4,276.2,483.4,273.2,507.7,261z"/>
								<g>
									<path class="st25" d="M462.6,151.2c-4.6,3.3-10.7,7.1-17.4,9.8c-6.6,2.7-13.7,4.2-19.3,4.9c2.8,0.5,6.1,0.6,9.6,0.2
										c3.5-0.4,7.2-1.3,10.7-2.7c3.5-1.4,6.8-3.3,9.6-5.4C458.6,155.9,460.9,153.5,462.6,151.2z"/>
								</g>
								<g>
									<path class="st25" d="M435.6,148.7c3.9,1.8,9.6,2.9,15.2,2.4c5.7-0.5,11.1-2.6,14.5-5.1c-4.1,1.3-9.3,2.6-14.7,3.1
										C445.3,149.5,439.8,149.2,435.6,148.7z"/>
								</g>
								<g>
									<path class="st25" d="M490.7,167.4c-3.4-1.6-7.6-4-11.3-7c-3.7-3-6.9-6.5-9.3-9.5c1.3,3.5,4.2,7.8,8.1,10.9
										C482.2,165,486.9,166.9,490.7,167.4z"/>
								</g>
								<g>
									<path class="st25" d="M490.5,155.3c-2.8-0.6-6.3-1.5-9.6-3c-3.3-1.4-6.4-3.3-8.7-4.9c1.7,2.3,4.7,4.7,8.2,6.2
										C483.8,155.1,487.6,155.6,490.5,155.3z"/>
								</g>
							</g>
							<g>
								<g>
									<path class="st26" d="M421.7,384.3l-33.3-34.6c-6.5-6.8-8.6-16.6-5.5-25.4l25.2-71.1c1.4-4,4.5-7.2,8.5-8.7l0,0l10.9,30.9
										l-22.4,56.9l23.6,25.6L421.7,384.3z"/>
									<path class="st27" d="M406.8,303c-0.7,6.1,0.1,12.6,2.7,18.1l18-45.8l-5.5-15.5c-1.9,6.4-4.8,12.6-7.5,18.8
										C411,286.4,407.7,294.5,406.8,303z"/>
								</g>
								<g>
									<path class="st22" d="M471.5,230.7v-14.8H450v15.2l-8.4,3.4c4.5,6.5,12.3,10.7,20.3,10.5c7.7-0.2,15.2-4.6,19.3-11.1
										L471.5,230.7z"/>
									<path class="st12" d="M471.5,222.9v-7.1H450v8.6c3,1.6,6.5,2.4,9.9,2.4C464,226.8,468.1,225.4,471.5,222.9z"/>
								</g>
								<path class="st26" d="M511.9,349c-4-13.4-4.6-27.6-2-41.4l6.3-32.7l-5.9-31.5l-29.2-9.5c-4.2,6.5-11.6,10.9-19.3,11.1
									c-7.9,0.2-15.8-4-20.3-10.5l-25,10l1.7,19.2c0.2,1.7,0,3.5-0.3,5.1l-6.6,29.1c-1.3,5.7,0.5,11.6,4.7,15.7
									c3.6,3.5,5.4,8.4,5,13.3l-5.9,75.7l0,0c35,10.1,72.5,7,105.3-8.8l4.1-1.9L511.9,349z"/>
								<path class="st27" d="M505.6,262.6l-1.1,5.7c-1.5,7.5-1.2,15.3,0.8,22.7l4.6,16.6l6.3-32.7L505.6,262.6z"/>
								<path class="st26" d="M510.4,243.4L510.4,243.4c5.7,1.6,10.3,5.9,12.3,11.5l24.6,68.5c3.2,8.9,0.6,18.9-6.6,25l-54.7,47.1
									l-11.5-20.8l50.1-46.2l-17.1-47.1c-1.4-3.9-2.1-8-2-12.1l0.2-12C505.8,252.3,507.4,247.4,510.4,243.4L510.4,243.4z"/>
								<g>
									<g>
										<path class="st27" d="M476.3,246.7c-2.5,1.4-5.5,2.6-8.8,3.3c-3.3,0.7-6.8,0.9-10.3,0.4c-3.4-0.5-6.8-1.7-9.7-3.4
											c-2.9-1.6-5.4-3.7-7.4-5.7c1.2,2.6,3.4,5.3,6.3,7.4c2.9,2.2,6.5,3.8,10.4,4.4c3.9,0.6,7.8,0.1,11.2-1.1
											C471.5,250.8,474.4,248.8,476.3,246.7z"/>
									</g>
									<g>
										<path class="st27" d="M500.8,306.9c-1.9,1.9-4.3,3.4-7.1,4.3c-2.8,0.9-5.8,1.3-9,1.3c-6.3-0.1-12.9-2.1-19.8-3.3
											c-6.9-1.2-14.1-1-20.6,0.3c-6.5,1.4-12.2,3.9-16.7,6.7c4.9-2.1,10.7-3.9,17-4.9c6.3-0.9,13.2-0.9,19.8,0.3
											c6.7,1.2,13.5,3.1,20.3,2.7c3.3-0.2,6.6-0.9,9.4-2.2C497,311,499.3,309,500.8,306.9z"/>
									</g>
									<g>
										<path class="st27" d="M491.1,262.7c-5.4,0.8-12.2,2.9-18.6,6c-6.4,3.1-12.3,7-16.3,10.7c4.9-2.2,11.1-5.4,17.4-8.4
											C479.9,268,486.2,265.1,491.1,262.7z"/>
									</g>
									<g>
										<path class="st27" d="M476,262.8c-3.5,1-7.6,1.9-12,2.5c-4.4,0.6-9.1,0.8-13.8,0.6c-4.7-0.3-9.4-1-13.7-2
											c-4.3-1-8.3-2.4-11.7-3.8c3.1,1.9,7,3.7,11.3,5c4.3,1.3,9.1,2.2,13.9,2.5c4.8,0.2,9.7-0.1,14.1-1
											C468.7,265.7,472.7,264.3,476,262.8z"/>
									</g>
									<g>
										<path class="st27" d="M489.9,244.9c-2.2,2.1-4.8,4.4-8,6.3c-3.1,2-6.7,3.6-10.4,4.7c-3.7,1.1-7.6,1.8-11.3,1.9
											c-3.7,0.1-7.2-0.2-10.1-0.8c2.9,1,6.4,1.8,10.1,1.9c3.8,0.1,7.8-0.4,11.7-1.6c3.9-1.2,7.5-3,10.6-5.2
											C485.6,249.9,488.1,247.3,489.9,244.9z"/>
									</g>
									<g>
										<path class="st27" d="M539.5,335.9c-0.3-2.4-2.3-5.4-5.3-6.9c-2.9-1.6-6.5-1.5-8.7-0.4c2.4,0.6,5.1,1.4,7.5,2.7
											C535.4,332.5,537.6,334.3,539.5,335.9z"/>
									</g>
									<g>
										<path class="st27" d="M490.1,343.2c-4.3,0.3-9.3,0.4-14.6,0.2c-5.3-0.2-10.9-0.8-16.4-1.9c-5.5-1-11-2.5-16-4.2
											c-5-1.7-9.6-3.7-13.6-5.5c3.6,2.4,8,4.9,13,6.9c5,2.1,10.5,3.7,16.1,4.8c5.6,1.1,11.4,1.5,16.8,1.4
											C480.8,344.8,485.8,344.2,490.1,343.2z"/>
									</g>
									<g>
										<path class="st27" d="M501.9,332.7c-6.2,2.1-14.4,4.3-22.8,5.2c-8.4,1-16.9,0.6-23.4-0.1c6.3,1.7,15,2.6,23.5,1.6
											C487.8,338.6,496.1,335.8,501.9,332.7z"/>
									</g>
								</g>
								<g>
									<path class="st27" d="M474.4,374.8l35.7-32.9l-0.6-3.2h0c-8.4,2.9-15.8,8.4-20.9,15.7L474.4,374.8z"/>
									<path class="st27" d="M517.6,368.3l2.4,8l-1.2,1c-8.1,6.8-17.3,12.2-27.2,16l-5.6,2.2L517.6,368.3z"/>
								</g>
							</g>
							<g>
								<g>
									<g>
										<circle class="st22" cx="427.5" cy="196.8" r="9"/>
										<circle class="st23" cx="427.5" cy="196.8" r="5.8"/>
									</g>
									<g>
										<circle class="st22" cx="489.2" cy="196.8" r="9"/>
										<circle class="st23" cx="489.2" cy="196.8" r="5.8"/>
									</g>
								</g>
								<path class="st22" d="M467.4,157.7c-9.7,9.1-22.9,14.3-36.2,14.6c-0.3,1.7-0.5,3.5-0.5,5.4v15.9c0,15.2,12.4,27.6,27.6,27.6
									c15.2,0,27.6-12.4,27.6-27.6v-15.9c0-0.7,0-1.4-0.1-2C477.9,172.1,471,165.6,467.4,157.7z"/>
								<g>
									<g>
										<path class="st4" d="M458.3,193.4c-11.7,0-23.5-0.5-27.6-4.2v3.5c4.2,3.6,15.9,4.2,27.6,4.2c11.7,0,23.5-0.5,27.6-4.2
											v-3.5C481.8,192.8,470,193.4,458.3,193.4z"/>
										<path class="st15" d="M430.7,192.7v4.1c0,13.5,11,24.5,24.5,24.5h3.1h3.1c13.5,0,24.5-11,24.5-24.5v-4.1
											c-4.2,3.6-15.9,4.2-27.6,4.2C446.7,196.8,434.9,196.3,430.7,192.7z"/>
									</g>
									<g>
										<g>
											<path class="st17" d="M476.5,200.6c-5.5,1-12.5,2-19.6,1.9c-7.1-0.1-14.1-1.2-19.5-2.4c2.4,1.4,5.4,2.7,8.8,3.6
												c3.3,0.9,7,1.4,10.7,1.5c3.7,0,7.4-0.4,10.8-1.2C471.1,203.1,474.1,201.9,476.5,200.6z"/>
										</g>
										<g>
											<path class="st17" d="M473,207.2c-4.5,1-10.2,1.8-16.1,1.7c-5.8-0.1-11.6-1.1-16-2.2c4,2.2,9.9,3.9,16,4
												C463,210.9,469,209.3,473,207.2z"/>
										</g>
									</g>
								</g>
								<g>
									<g>
										<path class="st24" d="M444.9,175.1c-2.9,0.2-5.4,1.8-6.9,4.1l14.4-1C450.6,176.1,447.9,174.9,444.9,175.1z"/>
									</g>
									<circle class="st12" cx="445.2" cy="184.8" r="2.4"/>
								</g>
								<g>
									<g>
										<path class="st24" d="M471.8,175.1c2.9,0.2,5.4,1.8,6.9,4.1l-14.4-1C466.1,176.1,468.8,174.9,471.8,175.1z"/>
									</g>
									<circle class="st12" cx="471.5" cy="184.8" r="2.4"/>
								</g>
								<path class="st23" d="M438.7,175.1c3.2-0.2,6.3-1.2,9.3-2.4c7.1-3,13.5-7.4,18.8-13.1c2,2.8,3.5,6.1,5.5,8.9
									c2,2.8,4.4,5.5,7.6,6.9c1.9,0.9,4,1.3,6.1,1.1c0-0.3,0-0.6,0-0.9c-8-3.6-14.8-10.1-18.4-17.9c-9.7,9.1-22.9,14.3-36.2,14.6
									c-0.1,0.4-0.2,0.9-0.2,1.4C433.4,174.8,436.1,175.2,438.7,175.1z"/>
							</g>
						</g>
						<g>
							<g>
								<path class="st19" d="M448.4,458.3c-10.3,1.2-21.1,0.4-30.8-3.3c-0.3,5.1-1,10.2-2.6,15.1c20.9,7.4,44,9.1,65.8,5.2
									c1.2-8.5,1.5-17.2,0.9-25.8C470.9,453.4,459.8,457,448.4,458.3z"/>
								<path class="st12" d="M448.4,458.3c11.4-1.3,22.5-4.8,33.4-8.7c-0.2-3.7-0.6-7.3-1.2-11c-20.3,4.5-42,6.5-62.8,5.2
									c0.1,3.7,0.1,7.5-0.1,11.2C427.3,458.7,438.1,459.5,448.4,458.3z"/>
							</g>
							<g>
								<path class="st12" d="M405.8,345.1c-3.8-3.1-3.5-9-2-13.7c1.5-4.7,3.8-9.5,2.9-14.3c-1.2-6.3-7.8-11.3-7.1-17.7
									c0.6-5.8,6.8-9.4,9-14.8c2.2-5.3,0.3-11.3,0.4-17.1c0.2-8.9,6-17.4,14.2-20.9c8.2-3.5,18.3-1.7,24.9,4.4
									c5.7-2.8,14-2.5,19.6,0.5s9.6,8.8,10.4,15.1c0.8,6.4-1.3,13.6,2.4,18.9c2.9,4.1,9,6.4,9.3,11.4c0.3,5.2-5.9,8.5-7.2,13.5
									c-1.4,5.4,3.1,10.3,5.3,15.4c3.5,8,1,17.9-4.8,24.5c-5.8,6.6-14.3,10.3-22.9,12C442,365.7,420.2,356.8,405.8,345.1z"/>
								<g>
									<g>
										<path class="st18" d="M445.9,266.1c-3.5,2.2-8.3,4.4-13.4,5.4c-5.1,1.1-10.3,1-14.4,0.4c1.9,0.9,4.2,1.6,6.8,1.9
											c2.6,0.3,5.4,0.2,8.1-0.4c2.7-0.6,5.3-1.6,7.5-2.9C442.7,269.3,444.5,267.7,445.9,266.1z"/>
									</g>
									<g>
										<path class="st18" d="M473.1,274.4c-3.5-0.5-7.9-1.7-11.9-3.7c-4-2-7.5-4.9-9.9-7.5c0.8,1.6,2,3.3,3.5,4.9
											c1.6,1.6,3.5,3,5.6,4.1c2.1,1.1,4.4,1.8,6.6,2.2C469.3,274.7,471.4,274.7,473.1,274.4z"/>
									</g>
									<g>
										<path class="st18" d="M470.7,260c-0.6-1.4-1.7-2.9-3.2-4.2c-1.4-1.3-3.3-2.4-5.3-3c-2-0.6-4.1-0.7-6.1-0.5
											c-1.9,0.3-3.6,0.9-5,1.7c3-0.8,6.9-1,10.6,0.2C465.5,255.3,468.7,257.7,470.7,260z"/>
									</g>
									<g>
										<path class="st18" d="M466.3,266.4c-2.3-0.6-5.2-1.6-7.8-3.1c-2.6-1.5-4.9-3.5-6.6-5.2c1,2.1,3.2,4.6,6,6.2
											C460.7,265.9,463.9,266.6,466.3,266.4z"/>
									</g>
									<g>
										<path class="st18" d="M421.6,260.2c2.9,1.7,7.4,2.7,11.8,2.3c4.5-0.4,8.7-2.3,11.2-4.5c-3.1,1.3-7.1,2.6-11.3,2.9
											C429.1,261.4,424.8,260.9,421.6,260.2z"/>
									</g>
									<g>
										<path class="st18" d="M418.1,256.1c1.7-1.2,3.7-2.3,5.9-3.2c2.2-0.9,4.7-1.5,7.2-1.7c2.5-0.2,5,0.1,7.4,0.6
											c2.3,0.6,4.5,1.4,6.3,2.3c-1.4-1.4-3.5-2.8-5.9-3.7c-2.4-0.9-5.2-1.4-8-1.2c-2.8,0.2-5.5,1-7.7,2.3
											C421.2,252.9,419.3,254.5,418.1,256.1z"/>
									</g>
								</g>
							</g>
							<g>
								<g>
									<path class="st28" d="M415,330.4l30.8-3.8l38,6.4l-2.7,69.6l2.7,42.9l-11.9,2.4c-17.3,3.5-35.1,3.4-52.4-0.1l-4.5-0.9
										V330.4z"/>
									<path class="st28" d="M483.8,333L483.8,333c3,0.4,5.6,2.3,6.9,5l11.1,22.4L482.2,374L483.8,333z"/>
									<polygon class="st29" points="482.2,374 483,350.3 489.7,368.8 									"/>
								</g>
								<g>
									<g>
										<path class="st29" d="M460.7,332.4c-1.7,1.2-3.8,2.4-6.1,3.3c-2.3,0.9-4.9,1.4-7.5,1.4c-2.6,0-5.2-0.5-7.5-1.3
											c-2.3-0.8-4.4-2-6.2-3.2c1.3,1.7,3.2,3.4,5.6,4.5c2.4,1.2,5.2,1.9,8.1,1.9c2.9,0,5.7-0.8,8.1-2
											C457.6,335.8,459.5,334.1,460.7,332.4z"/>
									</g>
									<g>
										<path class="st29" d="M423.7,375c4.1,0,8.9-0.6,13.8-2.3c4.9-1.6,9.9-4.1,14.3-7.4c4.4-3.3,8.4-7.2,11.4-11.4
											c3-4.2,5.1-8.6,6.4-12.5c-2.4,3.4-5.3,7-8.6,10.6c-3.4,3.6-7.2,7-11.4,10.1c-4.2,3-8.7,5.7-13.1,7.8
											C432,372.1,427.7,373.7,423.7,375z"/>
									</g>
									<g>
										<path class="st29" d="M456.7,353.5c-4.1,0.7-9.3,1.4-14.6,1.4c-5.3,0-10.5-0.6-14.6-1.2c3.7,1.9,9.1,3.2,14.6,3.2
											C447.6,356.8,453,355.4,456.7,353.5z"/>
									</g>
								</g>
							</g>
							<g>
								<path class="st14" d="M459.2,425.1c-0.9,2.6-1.5,5.4-0.9,8.1c0.6,2.7,2.7,5.2,5.5,5.5c3.1,0.3,5.8-2.3,6.8-5.2
									c1-2.9,0.6-6.1,0.3-9.2c-0.3-2.1-0.1-14.4-4.3-12.8c-1.8,0.7-3.4,4.5-4.3,6.2C461,420.2,460,422.6,459.2,425.1z"/>
								<path class="st14" d="M499.7,410.1c1.1,1.5,1.9,3.2,2,5c0,1.8-0.9,3.7-2.6,4.4c-2.1,0.8-4.4-0.5-6.2-1.9
									c-2.1-1.6-4.1-3.5-5.9-5.4c-1.5-1.6-4.3-4.1-4.8-6.3c-1.3-5.5,9.2-2,11.2-1C495.8,406,498.1,407.8,499.7,410.1z"/>
								<path class="st14" d="M475.6,439.7c-2.8,5.3-4.2,11.3-4,17.3c0.1,3,0.7,6.1,2.6,8.3c2,2.2,5.7,3.1,7.9,1.1
									c1.4-1.2,1.9-3.1,1.9-4.9c0-1.8-0.5-3.6-0.9-5.4c-1-4.9-0.8-10,0.3-14.8C481.4,440.9,477.9,440.2,475.6,439.7z"/>
								<path class="st14" d="M493.6,436c3.1,1.1,5.5,4,6,7.2c0.3,2.2-0.2,4.5-0.1,6.7s0.8,4.7,2.8,5.8c1.9,1,4.4,0.3,6-1.2
									c1.6-1.5,2.3-3.7,2.8-5.8c0.5-2.4,0.8-4.9,0.4-7.3c-0.4-2.4-1.4-4.8-3.2-6.5c-3-2.8-7.5-3.4-11.6-3.7
									C495.7,432.4,494.5,434.7,493.6,436z"/>
								<g>
									<path class="st13" d="M497.7,421.5c2.6,9.2-2.1,18.7-10.6,21.1c-8.5,2.4-17.5-3.1-20.1-12.4c-2.6-9.2,0-26.1,8.5-28.5
										C483.9,399.4,495,412.3,497.7,421.5z"/>
									<path class="st11" d="M483,438c-5,0-9.5-3.8-11.1-9.2c-2.3-8,0.6-20.8,4.9-22.1c0.2-0.1,0.5-0.1,0.7-0.1
										c4.8,0,12.9,8.8,15.1,16.3c1.8,6.5-1.3,13.1-7,14.7C484.8,437.8,483.9,438,483,438z"/>
								</g>
								<g>
									<g>
										<circle class="st14" cx="447.8" cy="389.9" r="7.3"/>
										<circle class="st11" cx="447.8" cy="389.9" r="4.9"/>
									</g>
									<g>
										<circle class="st14" cx="474.9" cy="375.9" r="7.3"/>
										<circle class="st11" cx="474.9" cy="375.9" r="4.9"/>
									</g>
									<circle class="st13" cx="466.5" cy="393.2" r="15.7"/>
									<g>
										
											<ellipse transform="matrix(0.8285 -0.5601 0.5601 0.8285 -141.7524 331.0475)" class="st11" cx="469.5" cy="396.9" rx="7.9" ry="5.7"/>
										
											<ellipse transform="matrix(0.8285 -0.5601 0.5601 0.8285 -140.5844 329.6013)" class="st12" cx="467.7" cy="394.3" rx="3.3" ry="2.2"/>
									</g>
									<circle class="st12" cx="459" cy="392" r="2.2"/>
									<circle class="st12" cx="469.9" cy="386" r="2.2"/>
								</g>
							</g>
							<g>
								<path class="st22" d="M483.8,372.9l6.7,17L457.7,415l-11.4-2.6c-2-0.5-4.1-0.1-5.9,1.1l-7,4.6c-2.1,1.4-3.1,3.9-2.5,6.3l0,0
									c0.8,3.3,4.1,5.3,7.3,4.4l6.5-1.7l10.4,2.2c3,0.6,6.2-0.7,7.8-3.3l0,0l40.2-24c5.2-3.1,7.4-9.4,5.2-15l-9.3-24.5
									L483.8,372.9z"/>
								<polygon class="st12" points="483.8,372.9 499.1,362.3 500,364.8 486.2,378.9 								"/>
							</g>
							<g>
								<path class="st22" d="M436.9,315.9v12.3c0,1.5,0.8,3,2.1,3.8l0.7,0.5c4.8,3,11,2.9,15.6-0.3l0,0c1.2-0.8,1.9-2.2,1.9-3.7
									V315L436.9,315.9z"/>
								<path class="st12" d="M443.7,325.5c3.7-0.2,7.3-1.5,10.2-3.7c1.2-0.9,2.3-1.9,3.3-3V315l-20.3,0.9v8.7
									C439.1,325.4,441.4,325.7,443.7,325.5z"/>
							</g>
							<g>
								<g>
									<g>
										
											<ellipse transform="matrix(0.9997 -2.530853e-02 2.530853e-02 0.9997 -7.3492 12.1592)" class="st22" cx="476.7" cy="296.4" rx="7.1" ry="7.1"/>
										
											<ellipse transform="matrix(0.9997 -2.531272e-02 2.531272e-02 0.9997 -7.3504 12.1612)" class="st23" cx="476.7" cy="296.4" rx="4.5" ry="4.5"/>
									</g>
									<g>
										
											<ellipse transform="matrix(0.9997 -2.530853e-02 2.530853e-02 0.9997 -7.41 10.5587)" class="st22" cx="413.4" cy="298" rx="7.1" ry="7.1"/>
										
											<ellipse transform="matrix(0.9997 -2.530126e-02 2.530126e-02 0.9997 -7.4079 10.5557)" class="st23" cx="413.4" cy="298" rx="4.5" ry="4.5"/>
									</g>
								</g>
								<path class="st22" d="M449.6,270.7c-8.7,8.6-20.4,14.1-32.6,15.3c-0.1,0.8-0.1,1.7-0.1,2.5l0.1,3
									c0.4,15.4,13.2,27.6,28.6,27.2h0c15.4-0.4,27.6-13.2,27.2-28.6l-0.1-3c-0.1-2.1-0.4-4.2-0.9-6.2
									C463.5,280.4,455.4,276.8,449.6,270.7z"/>
								<g>
									<g>
										<path class="st4" d="M445.7,297.2c-9.2,0.2-19.9-0.8-23.5-2.5l-0.6,3.3c4.1,1.5,14.9,2.5,24.2,2.3c9.3-0.2,20-1.8,24-3.5
											l-0.8-3.2C465.5,295.4,454.9,297,445.7,297.2z"/>
										<path class="st15" d="M421.6,298l-0.2,1.2c-0.8,4.4,0.5,9,3.7,12.2c5.3,5.4,12.6,8.4,20.2,8.2l1,0l1,0
											c7.6-0.2,14.7-3.5,19.7-9.2c3-3.4,4.1-8,3.1-12.4l-0.3-1.1c-4,1.7-14.7,3.3-24,3.5C436.4,300.5,425.7,299.5,421.6,298z"/>
									</g>
									<g>
										<g>
											<path class="st17" d="M462.7,302.6c-4.9,0.8-11.2,1.7-17.5,1.8c-6.3,0.2-12.6-0.4-17.5-1c4.5,2.1,11,3.5,17.6,3.3
												C451.9,306.7,458.3,304.9,462.7,302.6z"/>
										</g>
										<g>
											<path class="st17" d="M459.9,309c-4,0.8-9.3,1.6-14.5,1.7c-5.3,0.1-10.5-0.4-14.6-1c3.8,1.6,9.2,2.7,14.6,2.6
												C450.9,312.2,456.2,310.8,459.9,309z"/>
										</g>
									</g>
								</g>
								<path class="st23" d="M449.4,272.3c2.4,4.3,6.9,7.7,11.7,9.1c3.5,1.1,7.4,1.1,10.9,0.1c0-0.2-0.1-0.4-0.1-0.6
									c-8.3-0.5-16.4-4.1-22.3-10.2c-8.7,8.6-20.4,14.1-32.6,15.3c-0.1,0.8-0.1,1.7-0.1,2.5l0,0.8c6.1-0.4,12.1-1.7,17.6-4.3
									C440.5,282.2,445.8,277.9,449.4,272.3z"/>
								<g>
									<g>
										<g>
											<path class="st24" d="M433.7,283.6c-2.8,0.2-5.2,1.7-6.6,3.9l13.7-1C439.1,284.6,436.5,283.4,433.7,283.6z"/>
										</g>
										
											<ellipse transform="matrix(0.9997 -2.531562e-02 2.531562e-02 0.9997 -7.2641 11.0789)" class="st12" cx="433.9" cy="292.4" rx="2" ry="2"/>
									</g>
									<g>
										<g>
											<path class="st24" d="M456.1,283.1c2.8,0,5.3,1.3,6.9,3.4l-13.8,0.1C450.8,284.5,453.2,283.1,456.1,283.1z"/>
										</g>
										
											<ellipse transform="matrix(0.9997 -2.531562e-02 2.531562e-02 0.9997 -7.2429 11.6357)" class="st12" cx="455.9" cy="291.9" rx="2" ry="2"/>
									</g>
								</g>
							</g>
						</g>
					</g>
				</g>
				<g>
					<g>
						<g>
							<path class="st30" d="M447.4,332.2c-26-4.4-50.1-16.6-69-35.1l-3.4-3.4v25.3c14.6,12,31.2,20.9,49.1,26.6
								c1.5,0.5,3.1,1,4.7,1.4v88.3c0,8-4,15.5-10.5,20c-1.1,0.7-2.2,1.4-3.4,2L375,476.6v20.7l48-23c14.9-7.2,24.5-22.3,24.5-38.9
								V332.2L447.4,332.2z"/>
							<path class="st31" d="M418.3,455.4c6.5-4.5,10.5-12,10.5-20v-88.3c-1.6-0.4-3.1-0.9-4.7-1.4v92.2
								C424.1,444.5,421.9,450.7,418.3,455.4z"/>
							<path class="st32" d="M414.9,457.4c1.2-0.6,2.3-1.3,3.4-2c3.6-4.7,5.8-10.9,5.8-17.5v-92.2c-17.9-5.7-34.5-14.7-49.1-26.6
								v157.5L414.9,457.4z"/>
						</g>
						<g>
							<path class="st26" d="M335.1,457.4c-1.2-0.6-2.3-1.3-3.4-2c-6.5-4.5-10.5-12-10.5-20v-88.3c1.6-0.4,3.1-0.9,4.7-1.4
								c17.9-5.7,34.5-14.7,49.1-26.6v-25.3l-3.4,3.4c-18.9,18.4-43,30.7-69,35.1l0,0v103.2c0,16.6,9.5,31.7,24.5,38.9l48,23v-20.7
								L335.1,457.4z"/>
							<path class="st30" d="M325.9,345.7c-1.5,0.5-3.1,1-4.7,1.4v88.3c0,8,4,15.5,10.5,20c-3.6-4.7-5.8-10.9-5.8-17.5V345.7z"/>
							<path class="st33" d="M325.9,437.9c0,6.5,2.1,12.8,5.8,17.5c1.1,0.7,2.2,1.4,3.4,2l39.9,19.2V319.1
								c-14.6,12-31.2,20.9-49.1,26.6V437.9z"/>
						</g>
					</g>
					<g>
						<path class="st34" d="M341.1,365.7L341.1,365.7c-4.4,0-7.9-3.5-7.9-7.9l0,0c0-4.4,3.5-7.9,7.9-7.9l0,0c4.4,0,7.9,3.5,7.9,7.9
							l0,0C349,362.1,345.5,365.7,341.1,365.7z"/>
						<path class="st34" d="M341.1,418.4L341.1,418.4c-4.4,0-7.9-3.5-7.9-7.9v-29.9c0-4.4,3.5-7.9,7.9-7.9l0,0
							c4.4,0,7.9,3.5,7.9,7.9v29.9C349,414.8,345.5,418.4,341.1,418.4z"/>
					</g>
				</g>
			</g>
		</g>
		<g>
			<g>
				<g>
					<path class="st35" d="M139.3,167.5l-1-2.5l-11.1,5.3c-0.5,0.2-0.6,1-0.3,1.9c0.3,0.9,1,1.4,1.5,1.3l11.8-3.5L139.3,167.5z"/>
					
						<ellipse transform="matrix(0.9337 -0.3581 0.3581 0.9337 -50.52 61.3619)" class="st36" cx="140.4" cy="167.1" rx="2.5" ry="5.8"/>
				</g>
				<g>
					<path class="st35" d="M51,189.4l0.7,2.6l11.5-4.2c0.5-0.1,0.7-1,0.4-1.9c-0.2-0.9-0.8-1.5-1.3-1.4l-12.1,2.3L51,189.4z"/>
					
						<ellipse transform="matrix(0.9642 -0.2653 0.2653 0.9642 -48.5438 20.0504)" class="st36" cx="49.9" cy="189.7" rx="2.5" ry="5.8"/>
				</g>
				<g>
					<path class="st35" d="M95.2,130h-3.5l1.3,19.4c0,0.8,1,1.5,2.2,1.5c1.2,0,2.2-0.7,2.2-1.5l1.3-19.4H95.2z"/>
					<ellipse class="st36" cx="95.2" cy="128.2" rx="7.6" ry="4"/>
				</g>
				<g>
					<path class="st35" d="M51.4,157.3l-1.5,3.2l18,7.3c0.7,0.4,1.7-0.3,2.3-1.4c0.5-1.1,0.4-2.3-0.3-2.6L53,154.2L51.4,157.3z"/>
					
						<ellipse transform="matrix(0.4384 -0.8988 0.8988 0.4384 -112.7125 132.723)" class="st36" cx="49.8" cy="156.6" rx="7.6" ry="4"/>
				</g>
				<g>
					<path class="st35" d="M56.8,208.7l2.2,2.8l14.5-12.9c0.6-0.5,0.5-1.7-0.2-2.7c-0.8-1-1.9-1.4-2.5-0.9l-16.1,10.9L56.8,208.7z"
						/>
					
						<ellipse transform="matrix(0.788 -0.6157 0.6157 0.788 -117.4025 78.6031)" class="st36" cx="55.4" cy="209.8" rx="4" ry="7.6"/>
				</g>
				<g>
					<path class="st35" d="M105.4,226.4l3.4-0.7l-5.3-18.7c-0.2-0.8-1.3-1.2-2.5-1c-1.2,0.3-2,1.1-1.9,1.9l2.8,19.2L105.4,226.4z"/>
					
						<ellipse transform="matrix(0.9781 -0.2079 0.2079 0.9781 -45.1117 26.9681)" class="st36" cx="105.7" cy="228.1" rx="7.6" ry="4"/>
				</g>
				<g>
					<path class="st35" d="M142.5,190.5l0.9-3.4l-19.1-3.4c-0.8-0.2-1.7,0.6-2,1.8c-0.3,1.2,0.1,2.3,0.9,2.5l18.5,5.9L142.5,190.5z"
						/>
					
						<ellipse transform="matrix(0.2419 -0.9703 0.9703 0.2419 -75.8909 284.6803)" class="st36" cx="144.2" cy="190.9" rx="7.6" ry="4"/>
				</g>
				<g>
					<path class="st35" d="M126.6,141.4l-2.7-2.3l-11.4,15.7c-0.5,0.6-0.2,1.8,0.8,2.5s2.1,0.9,2.6,0.3l13.4-14L126.6,141.4z"/>
					<ellipse transform="matrix(0.6428 -0.766 0.766 0.6428 -61.631 147.8337)" class="st36" cx="127.7" cy="140" rx="4" ry="7.6"/>
				</g>
				<circle class="st37" cx="95.2" cy="178.7" r="34.4"/>
				<path class="st38" d="M72.2,171c0-6.6,2.1-12.6,5.6-17.6c-7.9,5.5-13.1,14.7-13.1,25.1c0,16.9,13.7,30.7,30.7,30.7
					c10.4,0,19.5-5.2,25.1-13.1c-5,3.5-11.1,5.6-17.6,5.6C86,201.7,72.2,187.9,72.2,171z"/>
				<g>
					
						<ellipse transform="matrix(0.7071 -0.7071 0.7071 0.7071 -79.7519 125.347)" class="st38" cx="111.4" cy="158.9" rx="4.2" ry="8.5"/>
					
						<ellipse transform="matrix(0.1299 -0.9915 0.9915 0.1299 -76.5446 278.7203)" class="st38" cx="120.5" cy="183" rx="6.4" ry="3.1"/>
					
						<ellipse transform="matrix(0.5873 -0.8094 0.8094 0.5873 -119.5983 152.0937)" class="st38" cx="89.3" cy="193.3" rx="2.4" ry="4.9"/>
					
						<ellipse transform="matrix(0.9089 -0.4169 0.4169 0.9089 -62.8473 61.4603)" class="st38" cx="109.3" cy="174.6" rx="3.1" ry="4"/>
					<ellipse transform="matrix(0.5 -0.866 0.866 0.5 -102.5149 152.8811)" class="st38" cx="81.1" cy="165.2" rx="6" ry="4.7"/>
				</g>
				<g>
					<path class="st35" d="M87.1,142.2l-3.1,0.7l4.4,14.1c0.1,0.6,1.1,0.9,2.2,0.6c1.1-0.2,1.8-0.9,1.7-1.5l-2.2-14.6L87.1,142.2z"
						/>
					
						<ellipse transform="matrix(0.9748 -0.2231 0.2231 0.9748 -29.2374 22.9014)" class="st36" cx="86.8" cy="140.9" rx="6.9" ry="3.1"/>
				</g>
				<g>
					<path class="st35" d="M71.5,139.6l-2.3,1.4l7.2,10.3c0.3,0.4,1.1,0.4,1.9-0.1c0.8-0.5,1.2-1.2,1-1.7l-5.5-11.3L71.5,139.6z"/>
					
						<ellipse transform="matrix(0.8603 -0.5097 0.5097 0.8603 -60.7574 55.5317)" class="st36" cx="71" cy="138.6" rx="5.8" ry="2.6"/>
				</g>
				<g>
					<path class="st35" d="M73.6,216.9l2.2,1.6l6.6-10.7c0.3-0.4-0.1-1.2-0.8-1.8c-0.8-0.6-1.6-0.7-1.9-0.2l-8.2,9.5L73.6,216.9z"/>
					
						<ellipse transform="matrix(0.5919 -0.806 0.806 0.5919 -145.8567 147.6453)" class="st36" cx="72.9" cy="217.9" rx="2.6" ry="5.8"/>
				</g>
				<g>
					<path class="st35" d="M132.2,205.8l1.6-2.2l-10.4-6.4c-0.4-0.3-1.2,0.1-1.8,0.8c-0.6,0.8-0.7,1.6-0.3,1.9l9.3,8L132.2,205.8z"
						/>
					
						<ellipse transform="matrix(0.5919 -0.806 0.806 0.5919 -112.1012 191.5271)" class="st36" cx="133.1" cy="206.5" rx="5.8" ry="2.5"/>
				</g>
				<g>
					<path class="st35" d="M65.5,156.1l-1.9,2.5l12.5,8c0.5,0.4,1.4,0,2.1-0.9c0.7-0.9,0.8-1.9,0.3-2.3l-11.1-9.8L65.5,156.1z"/>
					
						<ellipse transform="matrix(0.6034 -0.7975 0.7975 0.6034 -98.3086 112.9703)" class="st36" cx="64.4" cy="155.3" rx="6.9" ry="3.1"/>
				</g>
				<g>
					<path class="st35" d="M57.9,180.7l0.2,3.2l14.7-1.9c0.6,0,1.1-0.9,1-2.1c-0.1-1.1-0.6-2-1.2-1.9l-14.8-0.4L57.9,180.7z"/>
					
						<ellipse transform="matrix(0.9987 -5.040996e-02 5.040996e-02 0.9987 -9.039 3.0822)" class="st36" cx="56.6" cy="180.7" rx="3.1" ry="6.9"/>
				</g>
				<g>
					<path class="st35" d="M90.8,216l3.1,0.4l0.7-14.8c0.1-0.6-0.8-1.2-1.8-1.4c-1.1-0.1-2,0.2-2.1,0.9l-3,14.5L90.8,216z"/>
					
						<ellipse transform="matrix(0.1238 -0.9923 0.9923 0.1238 -136.3021 280.3791)" class="st36" cx="90.6" cy="217.4" rx="3.1" ry="6.9"/>
				</g>
				<g>
					<path class="st35" d="M115.8,210.3l2.7-1.7l-9-11.8c-0.3-0.5-1.4-0.4-2.3,0.2c-0.9,0.6-1.4,1.5-1.1,2l7,13L115.8,210.3z"/>
					
						<ellipse transform="matrix(0.8397 -0.543 0.543 0.8397 -96.1339 97.1756)" class="st36" cx="116.5" cy="211.4" rx="6.9" ry="3.1"/>
				</g>
				<g>
					<path class="st35" d="M130,164.2l-1.2-2.9l-13.1,6.8c-0.6,0.2-0.7,1.3-0.2,2.3c0.4,1,1.2,1.6,1.8,1.4l14-4.7L130,164.2z"/>
					
						<ellipse transform="matrix(0.9213 -0.389 0.389 0.9213 -53.3177 63.9402)" class="st36" cx="131.3" cy="163.7" rx="3.1" ry="6.9"/>
				</g>
				<g>
					<path class="st35" d="M110.1,147.9l-2.8-1.4l-5.7,13.7c-0.3,0.5,0.3,1.4,1.3,1.9c1,0.5,2,0.5,2.3-0.1l7.8-12.6L110.1,147.9z"/>
					
						<ellipse transform="matrix(0.4557 -0.8901 0.8901 0.4557 -70.3382 178.4477)" class="st36" cx="110.7" cy="146.7" rx="3.1" ry="6.9"/>
				</g>
				
					<ellipse transform="matrix(0.7071 -0.7071 0.7071 0.7071 -92.6296 111.3832)" class="st36" cx="88.1" cy="167.5" rx="6.4" ry="5.7"/>
				
					<ellipse transform="matrix(0.7327 -0.6805 0.6805 0.7327 -102.4311 106.8402)" class="st36" cx="84.8" cy="183.8" rx="3.8" ry="4.3"/>
				
					<ellipse transform="matrix(0.7327 -0.6805 0.6805 0.7327 -94.7979 126.2808)" class="st36" cx="113.4" cy="183.8" rx="3.3" ry="2.9"/>
				
					<ellipse transform="matrix(0.7327 -0.6805 0.6805 0.7327 -102.772 120.1293)" class="st36" cx="101.6" cy="190.9" rx="5.3" ry="4.7"/>
				
					<ellipse transform="matrix(0.7327 -0.6805 0.6805 0.7327 -87.1305 115.8924)" class="st36" cx="104" cy="168.9" rx="2.7" ry="3.1"/>
				
					<ellipse transform="matrix(3.694887e-02 -0.9993 0.9993 3.694887e-02 -85.4963 268.6639)" class="st36" cx="96.6" cy="178.7" rx="5" ry="4.5"/>
			</g>
			<g>
				<g>
					<path class="st35" d="M587.1,72.1l-0.8-2l-8.9,4.3c-0.4,0.1-0.5,0.8-0.2,1.5s0.8,1.2,1.2,1l9.4-2.8L587.1,72.1z"/>
					
						<ellipse transform="matrix(0.9337 -0.3581 0.3581 0.9337 13.2947 215.3244)" class="st36" cx="587.9" cy="71.8" rx="2" ry="4.7"/>
				</g>
				<g>
					<path class="st35" d="M516.3,89.7l0.6,2.1l9.2-3.4c0.4-0.1,0.5-0.8,0.3-1.5c-0.2-0.7-0.7-1.2-1.1-1.1l-9.7,1.8L516.3,89.7z"/>
					
						<ellipse transform="matrix(0.9642 -0.2653 0.2653 0.9642 -5.3776 139.9929)" class="st36" cx="515.5" cy="89.9" rx="2" ry="4.7"/>
				</g>
				<g>
					<path class="st35" d="M551.8,42h-2.8l1,15.5c0,0.6,0.8,1.2,1.8,1.2c1,0,1.8-0.5,1.8-1.2l1-15.5H551.8z"/>
					<ellipse class="st36" cx="551.8" cy="40.6" rx="6.1" ry="3.2"/>
				</g>
				<g>
					<path class="st35" d="M516.7,64l-1.2,2.5l14.4,5.9c0.6,0.3,1.4-0.2,1.8-1.1s0.3-1.8-0.3-2.1l-13.5-7.7L516.7,64z"/>
					
						<ellipse transform="matrix(0.4384 -0.8988 0.8988 0.4384 232.5316 498.8201)" class="st36" cx="515.4" cy="63.3" rx="6.1" ry="3.2"/>
				</g>
				<g>
					<path class="st35" d="M521,105.1l1.7,2.2L534.3,97c0.5-0.4,0.4-1.3-0.2-2.1c-0.6-0.8-1.5-1.1-2-0.7l-12.9,8.7L521,105.1z"/>
					
						<ellipse transform="matrix(0.788 -0.6157 0.6157 0.788 44.9531 342.5432)" class="st36" cx="519.9" cy="106" rx="3.2" ry="6.1"/>
				</g>
				<g>
					<path class="st35" d="M559.9,119.3l2.8-0.6l-4.2-15c-0.1-0.6-1-1-2-0.8c-1,0.2-1.6,0.9-1.5,1.5l2.2,15.4L559.9,119.3z"/>
					
						<ellipse transform="matrix(0.9781 -0.2079 0.2079 0.9781 -12.8456 119.1044)" class="st36" cx="560.2" cy="120.7" rx="6.1" ry="3.2"/>
				</g>
				<g>
					<path class="st35" d="M589.7,90.5l0.7-2.7L575,85c-0.6-0.2-1.3,0.5-1.6,1.4c-0.2,1,0.1,1.9,0.7,2l14.8,4.8L589.7,90.5z"/>
					
						<ellipse transform="matrix(0.2419 -0.9703 0.9703 0.2419 359.8759 642.3641)" class="st36" cx="591" cy="90.9" rx="6.1" ry="3.2"/>
				</g>
				<g>
					<path class="st35" d="M576.9,51.2l-2.2-1.8l-9.2,12.5c-0.4,0.5-0.1,1.4,0.6,2c0.8,0.6,1.7,0.7,2.1,0.3L579,53L576.9,51.2z"/>
					
						<ellipse transform="matrix(0.6428 -0.766 0.766 0.6428 168.0188 460.4954)" class="st36" cx="577.8" cy="50.1" rx="3.2" ry="6.1"/>
				</g>
				<circle class="st37" cx="551.8" cy="81.1" r="27.6"/>
				<path class="st38" d="M533.4,74.9c0-5.3,1.7-10.1,4.5-14.1c-6.3,4.4-10.5,11.8-10.5,20.1c0,13.6,11,24.6,24.6,24.6
					c8.3,0,15.7-4.1,20.1-10.5c-4,2.8-8.9,4.5-14.1,4.5C544.4,99.5,533.4,88.5,533.4,74.9z"/>
				<g>
					
						<ellipse transform="matrix(0.7071 -0.7071 0.7071 0.7071 119.2621 418.4503)" class="st38" cx="564.7" cy="65.3" rx="3.3" ry="6.8"/>
					
						<ellipse transform="matrix(0.1298 -0.9915 0.9915 0.1298 413.9583 640.7327)" class="st38" cx="572" cy="84.5" rx="5.1" ry="2.5"/>
					<ellipse transform="matrix(0.5873 -0.8094 0.8094 0.5873 150.6771 481.08)" class="st38" cx="547" cy="92.8" rx="1.9" ry="4"/>
					<ellipse transform="matrix(0.909 -0.4169 0.4169 0.909 18.821 241.8088)" class="st38" cx="563" cy="77.8" rx="2.5" ry="3.2"/>
					<ellipse transform="matrix(0.5 -0.866 0.866 0.5 209.3642 503.2171)" class="st38" cx="540.5" cy="70.3" rx="4.8" ry="3.8"/>
				</g>
				<g>
					<path class="st35" d="M545.2,51.8l-2.5,0.6l3.5,11.3c0.1,0.5,0.9,0.7,1.8,0.5c0.9-0.2,1.5-0.7,1.4-1.2l-1.7-11.7L545.2,51.8z"
						/>
					
						<ellipse transform="matrix(0.9748 -0.2231 0.2231 0.9748 2.4049 122.8504)" class="st36" cx="545" cy="50.8" rx="5.5" ry="2.4"/>
				</g>
				<g>
					<path class="st35" d="M532.8,49.8l-1.9,1.1l5.8,8.2c0.2,0.4,0.9,0.3,1.6,0c0.6-0.4,1-1,0.8-1.3l-4.4-9L532.8,49.8z"/>
					
						<ellipse transform="matrix(0.8603 -0.5097 0.5097 0.8603 49.3661 278.1728)" class="st36" cx="532.3" cy="49" rx="4.7" ry="2.1"/>
				</g>
				<g>
					<path class="st35" d="M534.4,111.7l1.7,1.3l5.3-8.6c0.2-0.3,0-1-0.6-1.4c-0.6-0.4-1.3-0.5-1.5-0.2l-6.6,7.6L534.4,111.7z"/>
					
						<ellipse transform="matrix(0.5919 -0.806 0.806 0.5919 127.2026 476.1796)" class="st36" cx="533.9" cy="112.5" rx="2.1" ry="4.7"/>
				</g>
				<g>
					<path class="st35" d="M581.4,102.8l1.3-1.7l-8.4-5.2c-0.3-0.2-1,0.1-1.4,0.7c-0.4,0.6-0.5,1.3-0.2,1.5l7.4,6.4L581.4,102.8z"/>
					
						<ellipse transform="matrix(0.5919 -0.806 0.806 0.5919 154.2459 511.3355)" class="st36" cx="582.1" cy="103.3" rx="4.7" ry="2"/>
				</g>
				<g>
					<path class="st35" d="M527.9,63l-1.5,2l10,6.4c0.4,0.3,1.1,0,1.7-0.7c0.5-0.7,0.6-1.5,0.3-1.8l-8.9-7.9L527.9,63z"/>
					
						<ellipse transform="matrix(0.6034 -0.7975 0.7975 0.6034 159.3352 445.0594)" class="st36" cx="527.1" cy="62.4" rx="5.5" ry="2.4"/>
				</g>
				<g>
					<path class="st35" d="M521.9,82.7l0.1,2.5l11.8-1.5c0.5,0,0.9-0.8,0.8-1.6c0-0.9-0.5-1.6-1-1.6l-11.9-0.3L521.9,82.7z"/>
					
						<ellipse transform="matrix(0.9987 -5.040773e-02 5.040773e-02 0.9987 -3.5079 26.3577)" class="st36" cx="520.8" cy="82.7" rx="2.4" ry="5.5"/>
				</g>
				<g>
					<path class="st35" d="M548.2,111l2.5,0.3l0.5-11.8c0.1-0.5-0.6-1-1.5-1.1c-0.9-0.1-1.6,0.2-1.7,0.7l-2.4,11.6L548.2,111z"/>
					
						<ellipse transform="matrix(0.1238 -0.9923 0.9923 0.1238 369.0092 642.0493)" class="st36" cx="548.1" cy="112.1" rx="2.4" ry="5.5"/>
				</g>
				<g>
					<path class="st35" d="M568.3,106.4l2.1-1.4l-7.2-9.4c-0.3-0.4-1.1-0.4-1.8,0.1c-0.7,0.5-1.1,1.2-0.9,1.6l5.6,10.4L568.3,106.4z
						"/>
					
						<ellipse transform="matrix(0.8397 -0.543 0.543 0.8397 32.8999 326.0978)" class="st36" cx="568.8" cy="107.3" rx="5.5" ry="2.4"/>
				</g>
				<g>
					<path class="st35" d="M579.6,69.5l-1-2.3l-10.5,5.5c-0.5,0.2-0.5,1-0.2,1.8c0.3,0.8,1,1.3,1.4,1.1l11.3-3.7L579.6,69.5z"/>
					<ellipse transform="matrix(0.9213 -0.389 0.389 0.9213 18.8701 231.277)" class="st36" cx="580.6" cy="69" rx="2.4" ry="5.5"/>
				</g>
				<g>
					<path class="st35" d="M563.7,56.4l-2.3-1.2l-4.6,10.9c-0.2,0.4,0.2,1.1,1,1.5s1.6,0.4,1.8-0.1l6.2-10.1L563.7,56.4z"/>
					
						<ellipse transform="matrix(0.4557 -0.8901 0.8901 0.4557 257.7023 532.4108)" class="st36" cx="564.2" cy="55.5" rx="2.4" ry="5.5"/>
				</g>
				
					<ellipse transform="matrix(0.7071 -0.7071 0.7071 0.7071 108.9393 407.2567)" class="st36" cx="546.1" cy="72.1" rx="5.1" ry="4.6"/>
				
					<ellipse transform="matrix(0.7328 -0.6805 0.6805 0.7328 87.2463 392.5601)" class="st36" cx="543.4" cy="85.2" rx="3.1" ry="3.4"/>
				
					<ellipse transform="matrix(0.7327 -0.6805 0.6805 0.7327 93.3709 408.1459)" class="st36" cx="566.3" cy="85.2" rx="2.6" ry="2.3"/>
				
					<ellipse transform="matrix(0.7327 -0.6805 0.6805 0.7327 86.9776 403.2133)" class="st36" cx="556.8" cy="90.9" rx="4.3" ry="3.8"/>
				
					<ellipse transform="matrix(0.7328 -0.6805 0.6805 0.7328 99.5057 399.813)" class="st36" cx="558.8" cy="73.2" rx="2.2" ry="2.5"/>
				
					<ellipse transform="matrix(3.694520e-02 -0.9993 0.9993 3.694520e-02 451.4416 630.6076)" class="st36" cx="552.9" cy="81.1" rx="4" ry="3.6"/>
			</g>
			<g>
				<g>
					<path class="st35" d="M621.3,389.2l-0.6-1.5l-6.7,3.2c-0.3,0.1-0.4,0.6-0.2,1.2c0.2,0.5,0.6,0.9,0.9,0.8l7.2-2.1L621.3,389.2z"
						/>
					
						<ellipse transform="matrix(0.9337 -0.3581 0.3581 0.9337 -98.0446 248.5373)" class="st36" cx="622" cy="389" rx="1.5" ry="3.6"/>
				</g>
				<g>
					<path class="st35" d="M567.6,402.6l0.4,1.6l7-2.6c0.3-0.1,0.4-0.6,0.3-1.1c-0.2-0.6-0.5-0.9-0.8-0.8l-7.3,1.4L567.6,402.6z"/>
					
						<ellipse transform="matrix(0.9642 -0.2653 0.2653 0.9642 -86.5377 164.8531)" class="st36" cx="566.9" cy="402.7" rx="1.5" ry="3.6"/>
				</g>
				<g>
					<path class="st35" d="M594.5,366.4h-2.1l0.8,11.8c0,0.5,0.6,0.9,1.4,0.9c0.7,0,1.4-0.4,1.4-0.9l0.8-11.8H594.5z"/>
					<ellipse class="st36" cx="594.5" cy="365.3" rx="4.6" ry="2.4"/>
				</g>
				<g>
					<path class="st35" d="M567.8,383l-0.9,1.9l10.9,4.5c0.4,0.2,1.1-0.2,1.4-0.8c0.3-0.7,0.2-1.4-0.2-1.6l-10.2-5.9L567.8,383z"/>
					
						<ellipse transform="matrix(0.4384 -0.8988 0.8988 0.4384 -25.4815 724.3481)" class="st36" cx="566.9" cy="382.6" rx="4.6" ry="2.4"/>
				</g>
				<g>
					<path class="st35" d="M571.1,414.3l1.3,1.7l8.8-7.9c0.4-0.3,0.3-1-0.1-1.6c-0.5-0.6-1.1-0.8-1.5-0.5l-9.8,6.6L571.1,414.3z"/>
					
						<ellipse transform="matrix(0.788 -0.6157 0.6157 0.788 -134.5854 439.0528)" class="st36" cx="570.3" cy="415" rx="2.4" ry="4.6"/>
				</g>
				<g>
					<path class="st35" d="M600.6,425l2.1-0.4l-3.2-11.4c-0.1-0.5-0.8-0.7-1.5-0.6c-0.7,0.2-1.2,0.7-1.1,1.1l1.7,11.7L600.6,425z"/>
					
						<ellipse transform="matrix(0.9781 -0.2079 0.2079 0.9781 -75.46 134.2375)" class="st36" cx="600.9" cy="426.1" rx="4.6" ry="2.4"/>
				</g>
				<g>
					<path class="st35" d="M623.3,403.2l0.5-2.1l-11.6-2.1c-0.5-0.1-1,0.4-1.2,1.1c-0.2,0.7,0.1,1.4,0.5,1.5l11.2,3.6L623.3,403.2z"
						/>
					
						<ellipse transform="matrix(0.2419 -0.9703 0.9703 0.2419 81.7852 911.6246)" class="st36" cx="624.3" cy="403.5" rx="4.6" ry="2.4"/>
				</g>
				<g>
					<path class="st35" d="M613.5,373.3l-1.6-1.4l-7,9.5c-0.3,0.4-0.1,1.1,0.5,1.6c0.6,0.5,1.3,0.6,1.6,0.2l8.2-8.5L613.5,373.3z"/>
					
						<ellipse transform="matrix(0.6428 -0.766 0.766 0.6428 -65.9346 603.5852)" class="st36" cx="614.2" cy="372.5" rx="2.4" ry="4.6"/>
				</g>
				<circle class="st37" cx="594.5" cy="396" r="20.9"/>
				<path class="st38" d="M580.5,391.4c0-4,1.3-7.7,3.4-10.7c-4.8,3.4-7.9,9-7.9,15.3c0,10.3,8.4,18.7,18.7,18.7
					c6.3,0,11.9-3.1,15.3-7.9c-3,2.1-6.7,3.4-10.7,3.4C588.8,410,580.5,401.7,580.5,391.4z"/>
				<g>
					
						<ellipse transform="matrix(0.7071 -0.7071 0.7071 0.7071 -94.5345 539.8164)" class="st38" cx="604.3" cy="384" rx="2.5" ry="5.2"/>
					
						<ellipse transform="matrix(0.1299 -0.9915 0.9915 0.1299 135.3987 951.5764)" class="st38" cx="609.9" cy="398.6" rx="3.9" ry="1.9"/>
					
						<ellipse transform="matrix(0.5873 -0.8094 0.8094 0.5873 -83.8768 645.3853)" class="st38" cx="590.9" cy="404.9" rx="1.5" ry="3"/>
					
						<ellipse transform="matrix(0.9089 -0.4169 0.4169 0.9089 -109.1723 287.2609)" class="st38" cx="603" cy="393.6" rx="1.9" ry="2.4"/>
					<ellipse transform="matrix(0.5 -0.866 0.866 0.5 -42.9336 701.3173)" class="st38" cx="585.9" cy="387.8" rx="3.7" ry="2.9"/>
				</g>
				<g>
					<path class="st35" d="M589.5,373.8l-1.9,0.4l2.7,8.6c0.1,0.4,0.7,0.5,1.3,0.4c0.7-0.1,1.1-0.6,1-0.9l-1.3-8.9L589.5,373.8z"/>
					
						<ellipse transform="matrix(0.9748 -0.2231 0.2231 0.9748 -68.3626 140.8657)" class="st36" cx="589.3" cy="373" rx="4.2" ry="1.9"/>
				</g>
				<g>
					<path class="st35" d="M580.1,372.3l-1.4,0.8l4.4,6.3c0.2,0.3,0.7,0.3,1.2,0c0.5-0.3,0.8-0.7,0.6-1l-3.4-6.9L580.1,372.3z"/>
					
						<ellipse transform="matrix(0.8603 -0.5097 0.5097 0.8603 -108.483 347.3919)" class="st36" cx="579.7" cy="371.7" rx="3.5" ry="1.6"/>
				</g>
				<g>
					<path class="st35" d="M581.3,419.3l1.3,1l4-6.5c0.2-0.3,0-0.7-0.5-1.1c-0.5-0.3-1-0.4-1.2-0.1l-5,5.8L581.3,419.3z"/>
					
						<ellipse transform="matrix(0.5919 -0.806 0.806 0.5919 -101.3806 639.5138)" class="st36" cx="580.9" cy="419.9" rx="1.6" ry="3.5"/>
				</g>
				<g>
					<path class="st35" d="M617,412.5l1-1.3l-6.4-3.9c-0.2-0.2-0.7,0-1.1,0.5c-0.3,0.5-0.4,1-0.2,1.2l5.6,4.9L617,412.5z"/>
					
						<ellipse transform="matrix(0.5919 -0.806 0.806 0.5919 -80.8336 666.2318)" class="st36" cx="617.5" cy="412.9" rx="3.6" ry="1.5"/>
				</g>
				<g>
					<path class="st35" d="M576.4,382.3l-1.2,1.5l7.6,4.9c0.3,0.2,0.9,0,1.3-0.6c0.4-0.5,0.5-1.2,0.2-1.4l-6.7-6L576.4,382.3z"/>
					
						<ellipse transform="matrix(0.6033 -0.7975 0.7975 0.6033 -76.1244 610.5688)" class="st36" cx="575.7" cy="381.8" rx="4.2" ry="1.9"/>
				</g>
				<g>
					<path class="st35" d="M571.8,397.2l0.1,1.9l8.9-1.2c0.4,0,0.6-0.6,0.6-1.2c0-0.7-0.4-1.2-0.7-1.2l-9-0.3L571.8,397.2z"/>
					
						<ellipse transform="matrix(0.9987 -5.041419e-02 5.041419e-02 0.9987 -19.3027 29.2895)" class="st36" cx="571" cy="397.3" rx="1.9" ry="4.2"/>
				</g>
				<g>
					<path class="st35" d="M591.8,418.8l1.9,0.2l0.4-9c0-0.4-0.5-0.7-1.1-0.8c-0.7-0.1-1.2,0.1-1.3,0.5l-1.8,8.8L591.8,418.8z"/>
					
						<ellipse transform="matrix(0.1238 -0.9923 0.9923 0.1238 102.0762 954.7537)" class="st36" cx="591.7" cy="419.6" rx="1.9" ry="4.2"/>
				</g>
				<g>
					<path class="st35" d="M607,415.3l1.6-1l-5.5-7.2c-0.2-0.3-0.8-0.3-1.4,0.1c-0.6,0.4-0.9,0.9-0.7,1.2l4.3,7.9L607,415.3z"/>
					
						<ellipse transform="matrix(0.8397 -0.543 0.543 0.8397 -128.5155 396.5376)" class="st36" cx="607.4" cy="416" rx="4.2" ry="1.9"/>
				</g>
				<g>
					<path class="st35" d="M615.6,387.2l-0.7-1.8l-8,4.1c-0.3,0.1-0.4,0.8-0.2,1.4c0.3,0.6,0.8,1,1.1,0.9l8.5-2.8L615.6,387.2z"/>
					
						<ellipse transform="matrix(0.9213 -0.389 0.389 0.9213 -101.944 270.222)" class="st36" cx="616.4" cy="386.9" rx="1.9" ry="4.2"/>
				</g>
				<g>
					<path class="st35" d="M603.5,377.3l-1.7-0.9l-3.5,8.3c-0.2,0.3,0.2,0.9,0.8,1.2c0.6,0.3,1.2,0.3,1.4,0l4.7-7.7L603.5,377.3z"/>
					
						<ellipse transform="matrix(0.4557 -0.8901 0.8901 0.4557 -6.5065 742.544)" class="st36" cx="603.9" cy="376.6" rx="1.9" ry="4.2"/>
				</g>
				
					<ellipse transform="matrix(0.7071 -0.7071 0.7071 0.7071 -102.3739 531.3093)" class="st36" cx="590.2" cy="389.2" rx="3.9" ry="3.5"/>
				
					<ellipse transform="matrix(0.7327 -0.6805 0.6805 0.7327 -114.4513 506.9054)" class="st36" cx="588.1" cy="399.2" rx="2.3" ry="2.6"/>
				
					<ellipse transform="matrix(0.7327 -0.6805 0.6805 0.7327 -109.8061 518.7313)" class="st36" cx="605.5" cy="399.2" rx="2" ry="1.8"/>
				
					<ellipse transform="matrix(0.7327 -0.6805 0.6805 0.7327 -114.6593 514.9893)" class="st36" cx="598.3" cy="403.5" rx="3.2" ry="2.9"/>
				
					<ellipse transform="matrix(0.7328 -0.6805 0.6805 0.7328 -105.1433 512.3923)" class="st36" cx="599.8" cy="390.1" rx="1.7" ry="1.9"/>
				
					<ellipse transform="matrix(3.694582e-02 -0.9993 0.9993 3.694582e-02 177.5742 976.3344)" class="st36" cx="595.3" cy="396" rx="3.1" ry="2.7"/>
			</g>
			<g>
				<g>
					<path class="st35" d="M696,267.2l-1-2.5l-10.9,5.2c-0.5,0.2-0.6,1-0.2,1.9c0.3,0.9,1,1.4,1.4,1.2l11.6-3.4L696,267.2z"/>
					
						<ellipse transform="matrix(0.9337 -0.3581 0.3581 0.9337 -49.321 267.3331)" class="st36" cx="697" cy="266.8" rx="2.5" ry="5.7"/>
				</g>
				<g>
					<path class="st35" d="M609.1,288.8l0.7,2.6l11.4-4.1c0.5-0.1,0.7-1,0.4-1.9c-0.2-0.9-0.8-1.5-1.3-1.4l-11.9,2.3L609.1,288.8z"
						/>
					
						<ellipse transform="matrix(0.9642 -0.2653 0.2653 0.9642 -54.9133 171.6823)" class="st36" cx="608" cy="289.1" rx="2.5" ry="5.7"/>
				</g>
				<g>
					<path class="st35" d="M652.6,230.3h-3.5l1.3,19.1c0,0.8,1,1.4,2.2,1.4c1.2,0,2.2-0.6,2.2-1.4l1.3-19.1H652.6z"/>
					<ellipse class="st36" cx="652.6" cy="228.5" rx="7.5" ry="3.9"/>
				</g>
				<g>
					<path class="st35" d="M609.5,257.2l-1.5,3.1l17.7,7.2c0.7,0.3,1.7-0.3,2.3-1.3c0.5-1.1,0.4-2.3-0.3-2.6l-16.6-9.5L609.5,257.2z
						"/>
					
						<ellipse transform="matrix(0.4384 -0.8988 0.8988 0.4384 110.9078 690.4182)" class="st36" cx="607.9" cy="256.5" rx="7.5" ry="3.9"/>
				</g>
				<g>
					<path class="st35" d="M614.8,307.8l2.1,2.7l14.2-12.7c0.6-0.5,0.5-1.7-0.2-2.6c-0.7-1-1.9-1.3-2.5-0.8l-15.8,10.7L614.8,307.8z
						"/>
					
						<ellipse transform="matrix(0.788 -0.6157 0.6157 0.788 -60.1221 443.1309)" class="st36" cx="613.4" cy="308.9" rx="3.9" ry="7.5"/>
				</g>
				<g>
					<path class="st35" d="M662.6,325.2l3.4-0.7l-5.2-18.4c-0.2-0.8-1.3-1.2-2.4-0.9c-1.2,0.3-2,1.1-1.8,1.9l2.7,18.9L662.6,325.2z"
						/>
					
						<ellipse transform="matrix(0.9781 -0.2079 0.2079 0.9781 -53.4787 144.977)" class="st36" cx="662.9" cy="326.9" rx="7.5" ry="3.9"/>
				</g>
				<g>
					<path class="st35" d="M699.1,289.9l0.8-3.4l-18.8-3.4c-0.8-0.2-1.6,0.6-1.9,1.8c-0.3,1.2,0.1,2.3,0.9,2.5l18.2,5.9L699.1,289.9
						z"/>
					
						<ellipse transform="matrix(0.2419 -0.9703 0.9703 0.2419 249.6235 900.0772)" class="st36" cx="700.8" cy="290.3" rx="7.5" ry="3.9"/>
				</g>
				<g>
					<path class="st35" d="M683.4,241.5l-2.7-2.2l-11.3,15.4c-0.5,0.6-0.2,1.7,0.8,2.5c0.9,0.8,2.1,0.9,2.6,0.3l13.2-13.8
						L683.4,241.5z"/>
					
						<ellipse transform="matrix(0.6428 -0.766 0.766 0.6428 60.545 610.1855)" class="st36" cx="684.5" cy="240.2" rx="3.9" ry="7.5"/>
				</g>
				<circle class="st37" cx="652.6" cy="278.3" r="33.9"/>
				<path class="st38" d="M630,270.7c0-6.5,2-12.4,5.5-17.3c-7.8,5.5-12.9,14.5-12.9,24.7c0,16.7,13.5,30.2,30.2,30.2
					c10.2,0,19.2-5.1,24.7-12.9c-4.9,3.5-10.9,5.5-17.3,5.5C643.5,300.9,630,287.4,630,270.7z"/>
				<g>
					
						<ellipse transform="matrix(0.7071 -0.7071 0.7071 0.7071 12.796 548.5309)" class="st38" cx="668.5" cy="258.8" rx="4.1" ry="8.4"/>
					
						<ellipse transform="matrix(0.1299 -0.9915 0.9915 0.1299 309.4287 917.5468)" class="st38" cx="677.5" cy="282.5" rx="6.3" ry="3.1"/>
					
						<ellipse transform="matrix(0.5873 -0.8094 0.8094 0.5873 30.0746 644.2903)" class="st38" cx="646.8" cy="292.7" rx="2.4" ry="4.9"/>
					
						<ellipse transform="matrix(0.9089 -0.4169 0.4169 0.9089 -53.6554 302.8111)" class="st38" cx="666.4" cy="274.2" rx="3.1" ry="3.9"/>
					<ellipse transform="matrix(0.5 -0.866 0.866 0.5 89.8576 685.642)" class="st38" cx="638.7" cy="265" rx="5.9" ry="4.6"/>
				</g>
				<g>
					<path class="st35" d="M644.5,242.3l-3,0.7l4.4,13.9c0.1,0.6,1.1,0.9,2.2,0.6c1.1-0.2,1.8-0.9,1.7-1.5l-2.1-14.4L644.5,242.3z"
						/>
					
						<ellipse transform="matrix(0.9748 -0.2231 0.2231 0.9748 -37.5321 149.7846)" class="st36" cx="644.2" cy="241" rx="6.7" ry="3"/>
				</g>
				<g>
					<path class="st35" d="M629.3,239.8l-2.3,1.3l7.1,10.1c0.3,0.4,1.1,0.4,1.9-0.1c0.8-0.5,1.2-1.2,1-1.7l-5.4-11.1L629.3,239.8z"
						/>
					
						<ellipse transform="matrix(0.8603 -0.5097 0.5097 0.8603 -33.9358 353.8092)" class="st36" cx="628.7" cy="238.8" rx="5.7" ry="2.6"/>
				</g>
				<g>
					<path class="st35" d="M631.3,315.9l2.1,1.6l6.5-10.5c0.3-0.4-0.1-1.2-0.8-1.7c-0.7-0.5-1.6-0.7-1.9-0.2l-8.1,9.4L631.3,315.9z"
						/>
					
						<ellipse transform="matrix(0.5919 -0.806 0.806 0.5919 1.9628 637.5258)" class="st36" cx="630.6" cy="316.8" rx="2.6" ry="5.7"/>
				</g>
				<g>
					<path class="st35" d="M689,305l1.6-2.1l-10.3-6.3c-0.4-0.3-1.2,0.1-1.7,0.8c-0.5,0.7-0.7,1.6-0.3,1.9l9.1,7.9L689,305z"/>
					
						<ellipse transform="matrix(0.5919 -0.806 0.806 0.5919 35.1968 680.7317)" class="st36" cx="689.9" cy="305.6" rx="5.7" ry="2.5"/>
				</g>
				<g>
					<path class="st35" d="M623.3,256l-1.9,2.5l12.3,7.8c0.5,0.4,1.4,0,2.1-0.9c0.7-0.9,0.8-1.9,0.3-2.2l-10.9-9.7L623.3,256z"/>
					
						<ellipse transform="matrix(0.6034 -0.7975 0.7975 0.6034 43.2588 597.4636)" class="st36" cx="622.2" cy="255.2" rx="6.7" ry="3"/>
				</g>
				<g>
					<path class="st35" d="M615.9,280.2l0.2,3.1l14.4-1.9c0.6,0,1-0.9,1-2c-0.1-1.1-0.6-1.9-1.2-1.9l-14.6-0.4L615.9,280.2z"/>
					
						<ellipse transform="matrix(0.9987 -5.040596e-02 5.040596e-02 0.9987 -13.3463 31.3327)" class="st36" cx="614.5" cy="280.3" rx="3" ry="6.7"/>
				</g>
				<g>
					<path class="st35" d="M648.2,315l3.1,0.4l0.7-14.6c0.1-0.6-0.7-1.2-1.8-1.3c-1.1-0.1-2,0.2-2.1,0.8l-2.9,14.3L648.2,315z"/>
					
						<ellipse transform="matrix(0.1238 -0.9923 0.9923 0.1238 253.9151 920.2332)" class="st36" cx="648" cy="316.3" rx="3" ry="6.7"/>
				</g>
				<g>
					<path class="st35" d="M672.8,309.4l2.6-1.7l-8.9-11.6c-0.3-0.5-1.3-0.4-2.2,0.1c-0.9,0.6-1.4,1.5-1.1,2l6.9,12.8L672.8,309.4z"
						/>
					
						<ellipse transform="matrix(0.8397 -0.543 0.543 0.8397 -60.6444 415.5357)" class="st36" cx="673.6" cy="310.5" rx="6.7" ry="3"/>
				</g>
				<g>
					<path class="st35" d="M686.8,264l-1.2-2.9l-12.9,6.7c-0.6,0.2-0.7,1.2-0.2,2.2c0.4,1,1.2,1.6,1.8,1.4l13.8-4.6L686.8,264z"/>
					
						<ellipse transform="matrix(0.9213 -0.389 0.389 0.9213 -48.2921 288.3708)" class="st36" cx="688" cy="263.5" rx="3" ry="6.7"/>
				</g>
				<g>
					<path class="st35" d="M667.3,248l-2.8-1.4l-5.6,13.5c-0.3,0.5,0.3,1.4,1.3,1.9c1,0.5,2,0.5,2.2-0.1l7.6-12.4L667.3,248z"/>
					
						<ellipse transform="matrix(0.4557 -0.8901 0.8901 0.4557 143.8248 728.8182)" class="st36" cx="667.9" cy="246.8" rx="3" ry="6.7"/>
				</g>
				
					<ellipse transform="matrix(0.7071 -0.7071 0.7071 0.7071 0.1167 534.7813)" class="st36" cx="645.6" cy="267.2" rx="6.3" ry="5.6"/>
				
					<ellipse transform="matrix(0.7327 -0.6805 0.6805 0.7327 -21.1363 512.819)" class="st36" cx="642.3" cy="283.3" rx="3.8" ry="4.2"/>
				
					<ellipse transform="matrix(0.7327 -0.6805 0.6805 0.7327 -13.6187 531.9616)" class="st36" cx="670.4" cy="283.3" rx="3.2" ry="2.9"/>
				
					<ellipse transform="matrix(0.7328 -0.6805 0.6805 0.7328 -21.4732 525.8973)" class="st36" cx="658.8" cy="290.3" rx="5.2" ry="4.7"/>
				
					<ellipse transform="matrix(0.7328 -0.6805 0.6805 0.7328 -6.0745 521.7267)" class="st36" cx="661.2" cy="268.6" rx="2.7" ry="3"/>
				
					<ellipse transform="matrix(3.695375e-02 -0.9993 0.9993 3.695375e-02 351.7384 921.5045)" class="st36" cx="654" cy="278.3" rx="5" ry="4.4"/>
			</g>
			<g>
				<g>
					<path class="st35" d="M212.4,298l-0.7-1.7l-7.7,3.7c-0.3,0.1-0.4,0.7-0.2,1.3c0.2,0.6,0.7,1,1,0.9l8.1-2.4L212.4,298z"/>
					
						<ellipse transform="matrix(0.9337 -0.3581 0.3581 0.9337 -92.4951 96.0663)" class="st36" cx="213.1" cy="297.7" rx="1.8" ry="4"/>
				</g>
				<g>
					<path class="st35" d="M151.3,313.2l0.5,1.8l8-2.9c0.3-0.1,0.5-0.7,0.3-1.3c-0.2-0.6-0.6-1.1-0.9-1l-8.3,1.6L151.3,313.2z"/>
					
						<ellipse transform="matrix(0.9642 -0.2653 0.2653 0.9642 -77.7579 51.1851)" class="st36" cx="150.6" cy="313.4" rx="1.8" ry="4"/>
				</g>
				<g>
					<path class="st35" d="M181.9,272.1h-2.4l0.9,13.4c0,0.6,0.7,1,1.5,1c0.9,0,1.5-0.5,1.5-1l0.9-13.4H181.9z"/>
					<ellipse class="st36" cx="181.9" cy="270.9" rx="5.3" ry="2.8"/>
				</g>
				<g>
					<path class="st35" d="M151.6,291l-1.1,2.2l12.4,5.1c0.5,0.2,1.2-0.2,1.6-0.9c0.4-0.8,0.3-1.6-0.2-1.8l-11.6-6.7L151.6,291z"/>
					
						<ellipse transform="matrix(0.4384 -0.8988 0.8988 0.4384 -176.5488 298.4042)" class="st36" cx="150.5" cy="290.5" rx="5.3" ry="2.8"/>
				</g>
				<g>
					<path class="st35" d="M155.3,326.5l1.5,1.9l10-8.9c0.4-0.3,0.4-1.2-0.2-1.8c-0.5-0.7-1.3-0.9-1.7-0.6l-11.1,7.5L155.3,326.5z"
						/>
					
						<ellipse transform="matrix(0.788 -0.6157 0.6157 0.788 -168.7649 164.4153)" class="st36" cx="154.4" cy="327.3" rx="2.8" ry="5.3"/>
				</g>
				<g>
					<path class="st35" d="M188.9,338.7l2.4-0.5l-3.7-12.9c-0.1-0.5-0.9-0.8-1.7-0.7c-0.8,0.2-1.4,0.8-1.3,1.3l1.9,13.3L188.9,338.7
						z"/>
					
						<ellipse transform="matrix(0.9781 -0.2079 0.2079 0.9781 -66.5421 46.7528)" class="st36" cx="189.1" cy="339.9" rx="5.3" ry="2.8"/>
				</g>
				<g>
					<path class="st35" d="M214.6,313.9l0.6-2.4l-13.2-2.4c-0.5-0.1-1.1,0.4-1.4,1.2c-0.2,0.8,0.1,1.6,0.6,1.7l12.8,4.1L214.6,313.9
						z"/>
					
						<ellipse transform="matrix(0.2419 -0.9703 0.9703 0.2419 -141.3265 447.5596)" class="st36" cx="215.8" cy="314.2" rx="5.3" ry="2.8"/>
				</g>
				<g>
					<path class="st35" d="M203.5,280l-1.9-1.6l-7.9,10.8c-0.4,0.4-0.1,1.2,0.5,1.8c0.7,0.5,1.5,0.6,1.8,0.2l9.3-9.7L203.5,280z"/>
					
						<ellipse transform="matrix(0.6428 -0.766 0.766 0.6428 -140.7615 256.1936)" class="st36" cx="204.3" cy="279" rx="2.8" ry="5.3"/>
				</g>
				<circle class="st37" cx="181.9" cy="305.8" r="23.8"/>
				<path class="st38" d="M166,300.5c0-4.5,1.4-8.7,3.9-12.2c-5.5,3.8-9,10.2-9,17.4c0,11.7,9.5,21.2,21.2,21.2
					c7.2,0,13.5-3.6,17.4-9c-3.4,2.4-7.6,3.9-12.2,3.9C175.5,321.7,166,312.2,166,300.5z"/>
				<g>
					
						<ellipse transform="matrix(0.7071 -0.7071 0.7071 0.7071 -150.0124 222.0883)" class="st38" cx="193.1" cy="292.1" rx="2.9" ry="5.9"/>
					
						<ellipse transform="matrix(0.1299 -0.9915 0.9915 0.1299 -132.6432 466.3293)" class="st38" cx="199.4" cy="308.7" rx="4.4" ry="2.2"/>
					
						<ellipse transform="matrix(0.5873 -0.8094 0.8094 0.5873 -182.2942 274.2851)" class="st38" cx="177.8" cy="315.9" rx="1.7" ry="3.4"/>
					
						<ellipse transform="matrix(0.9089 -0.4169 0.4169 0.9089 -108.8619 107.4627)" class="st38" cx="191.6" cy="303" rx="2.1" ry="2.7"/>
					<ellipse transform="matrix(0.5 -0.866 0.866 0.5 -170.6785 297.3078)" class="st38" cx="172.1" cy="296.5" rx="4.2" ry="3.2"/>
				</g>
				<g>
					<path class="st35" d="M176.2,280.5l-2.1,0.5l3.1,9.8c0.1,0.4,0.8,0.6,1.5,0.4c0.7-0.2,1.3-0.6,1.2-1.1l-1.5-10.1L176.2,280.5z"
						/>
					
						<ellipse transform="matrix(0.9748 -0.2231 0.2231 0.9748 -57.944 46.3122)" class="st36" cx="176" cy="279.6" rx="4.7" ry="2.1"/>
				</g>
				<g>
					<path class="st35" d="M165.5,278.8l-1.6,0.9l5,7.1c0.2,0.3,0.8,0.3,1.3,0c0.6-0.3,0.9-0.8,0.7-1.2l-3.8-7.8L165.5,278.8z"/>
					
						<ellipse transform="matrix(0.8603 -0.5097 0.5097 0.8603 -118.6906 122.9923)" class="st36" cx="165.1" cy="278.1" rx="4" ry="1.8"/>
				</g>
				<g>
					<path class="st35" d="M166.9,332.2l1.5,1.1l4.6-7.4c0.2-0.3,0-0.8-0.6-1.2c-0.5-0.4-1.1-0.5-1.3-0.2l-5.7,6.6L166.9,332.2z"/>
					
						<ellipse transform="matrix(0.5919 -0.806 0.806 0.5919 -200.369 269.9663)" class="st36" cx="166.4" cy="332.9" rx="1.8" ry="4"/>
				</g>
				<g>
					<path class="st35" d="M207.4,324.5l1.1-1.5l-7.2-4.5c-0.3-0.2-0.8,0-1.2,0.6c-0.4,0.5-0.5,1.1-0.2,1.3l6.4,5.6L207.4,324.5z"/>
					
						<ellipse transform="matrix(0.5919 -0.806 0.806 0.5919 -177.0323 300.3041)" class="st36" cx="208.1" cy="325" rx="4" ry="1.8"/>
				</g>
				<g>
					<path class="st35" d="M161.3,290.2l-1.3,1.7l8.6,5.5c0.3,0.3,1,0,1.4-0.6c0.5-0.6,0.6-1.3,0.2-1.6l-7.6-6.8L161.3,290.2z"/>
					
						<ellipse transform="matrix(0.6033 -0.7975 0.7975 0.6033 -167.271 242.9284)" class="st36" cx="160.6" cy="289.6" rx="4.7" ry="2.1"/>
				</g>
				<g>
					<path class="st35" d="M156.1,307.1l0.1,2.2l10.1-1.3c0.4,0,0.7-0.7,0.7-1.4c0-0.8-0.4-1.4-0.8-1.3L156,305L156.1,307.1z"/>
					
						<ellipse transform="matrix(0.9987 -5.040397e-02 5.040397e-02 0.9987 -15.2865 8.2111)" class="st36" cx="155.2" cy="307.2" rx="2.1" ry="4.7"/>
				</g>
				<g>
					<path class="st35" d="M178.8,331.6l2.2,0.3l0.5-10.2c0.1-0.4-0.5-0.8-1.3-0.9c-0.8-0.1-1.4,0.2-1.5,0.6l-2.1,10L178.8,331.6z"
						/>
					
						<ellipse transform="matrix(0.1238 -0.9923 0.9923 0.1238 -173.3952 468.6694)" class="st36" cx="178.7" cy="332.5" rx="2.1" ry="4.7"/>
				</g>
				<g>
					<path class="st35" d="M196.1,327.6l1.8-1.2l-6.2-8.1c-0.2-0.4-0.9-0.3-1.6,0.1c-0.6,0.4-1,1-0.7,1.4l4.9,9L196.1,327.6z"/>
					
						<ellipse transform="matrix(0.8397 -0.543 0.543 0.8397 -146.8241 159.4055)" class="st36" cx="196.6" cy="328.4" rx="4.7" ry="2.1"/>
				</g>
				<g>
					<path class="st35" d="M205.9,295.7l-0.9-2l-9.1,4.7c-0.4,0.2-0.5,0.9-0.2,1.6s0.9,1.1,1.2,1l9.7-3.2L205.9,295.7z"/>
					
						<ellipse transform="matrix(0.9213 -0.389 0.389 0.9213 -98.6074 103.69)" class="st36" cx="206.8" cy="295.4" rx="2.1" ry="4.7"/>
				</g>
				<g>
					<path class="st35" d="M192.2,284.5l-1.9-1l-3.9,9.4c-0.2,0.4,0.2,1,0.9,1.3c0.7,0.3,1.4,0.3,1.6-0.1l5.4-8.7L192.2,284.5z"/>
					
						<ellipse transform="matrix(0.4557 -0.8901 0.8901 0.4557 -147.6859 325.8533)" class="st36" cx="192.6" cy="283.7" rx="2.1" ry="4.7"/>
				</g>
				
					<ellipse transform="matrix(0.7071 -0.7071 0.7071 0.7071 -158.9149 212.4321)" class="st36" cx="177" cy="298" rx="4.4" ry="3.9"/>
				
					<ellipse transform="matrix(0.7327 -0.6805 0.6805 0.7327 -163.8182 201.5328)" class="st36" cx="174.7" cy="309.3" rx="2.6" ry="3"/>
				
					<ellipse transform="matrix(0.7328 -0.6805 0.6805 0.7328 -158.54 214.9697)" class="st36" cx="194.4" cy="309.3" rx="2.3" ry="2"/>
				
					<ellipse transform="matrix(0.7327 -0.6805 0.6805 0.7327 -164.054 210.7205)" class="st36" cx="186.3" cy="314.2" rx="3.7" ry="3.3"/>
				
					<ellipse transform="matrix(0.7328 -0.6805 0.6805 0.7328 -153.2382 207.7841)" class="st36" cx="187.9" cy="299" rx="1.9" ry="2.1"/>
				
					<ellipse transform="matrix(3.693279e-02 -0.9993 0.9993 3.693279e-02 -129.4685 477.2132)" class="st36" cx="182.9" cy="305.8" rx="3.5" ry="3.1"/>
			</g>
			<g>
				<g>
					<path class="st35" d="M226.4,77.4l-0.5-1.4l-6.1,2.9c-0.3,0.1-0.3,0.6-0.1,1.1c0.2,0.5,0.6,0.8,0.8,0.7l6.5-1.9L226.4,77.4z"/>
					
						<ellipse transform="matrix(0.9337 -0.3581 0.3581 0.9337 -12.5725 86.4129)" class="st36" cx="227" cy="77.1" rx="1.4" ry="3.2"/>
				</g>
				<g>
					<path class="st35" d="M177.5,89.5l0.4,1.4l6.4-2.3c0.3-0.1,0.4-0.5,0.2-1c-0.1-0.5-0.5-0.8-0.7-0.8l-6.7,1.3L177.5,89.5z"/>
					
						<ellipse transform="matrix(0.9642 -0.2653 0.2653 0.9642 -17.4574 50.1463)" class="st36" cx="176.9" cy="89.7" rx="1.4" ry="3.2"/>
				</g>
				<g>
					<path class="st35" d="M202,56.6h-2l0.7,10.7c0,0.4,0.6,0.8,1.2,0.8c0.7,0,1.2-0.4,1.2-0.8l0.7-10.7H202z"/>
					<ellipse class="st36" cx="202" cy="55.6" rx="4.2" ry="2.2"/>
				</g>
				<g>
					<path class="st35" d="M177.7,71.8l-0.9,1.8l10,4.1c0.4,0.2,1-0.1,1.3-0.8c0.3-0.6,0.2-1.3-0.2-1.5l-9.3-5.3L177.7,71.8z"/>
					
						<ellipse transform="matrix(0.4384 -0.8988 0.8988 0.4384 35.2053 198.9821)" class="st36" cx="176.8" cy="71.3" rx="4.2" ry="2.2"/>
				</g>
				<g>
					<path class="st35" d="M180.7,100.2l1.2,1.5l8-7.2c0.4-0.3,0.3-0.9-0.1-1.5c-0.4-0.5-1-0.7-1.4-0.5l-8.9,6L180.7,100.2z"/>
					
						<ellipse transform="matrix(0.788 -0.6157 0.6157 0.788 -23.9282 132.1436)" class="st36" cx="179.9" cy="100.8" rx="2.2" ry="4.2"/>
				</g>
				<g>
					<path class="st35" d="M207.6,110l1.9-0.4l-2.9-10.3c-0.1-0.4-0.7-0.7-1.4-0.5c-0.7,0.1-1.1,0.6-1,1l1.5,10.6L207.6,110z"/>
					
						<ellipse transform="matrix(0.9781 -0.2079 0.2079 0.9781 -18.5298 45.6282)" class="st36" cx="207.8" cy="111" rx="4.2" ry="2.2"/>
				</g>
				<g>
					<path class="st35" d="M228.2,90.1l0.5-1.9l-10.6-1.9c-0.4-0.1-0.9,0.3-1.1,1c-0.2,0.7,0.1,1.3,0.5,1.4l10.2,3.3L228.2,90.1z"/>
					
						<ellipse transform="matrix(0.2419 -0.9703 0.9703 0.2419 86.0256 290.8242)" class="st36" cx="229.1" cy="90.4" rx="4.2" ry="2.2"/>
				</g>
				<g>
					<path class="st35" d="M219.3,62.9l-1.5-1.3l-6.3,8.7c-0.3,0.3-0.1,1,0.4,1.4c0.5,0.4,1.2,0.5,1.5,0.2l7.4-7.8L219.3,62.9z"/>
					
						<ellipse transform="matrix(0.6428 -0.766 0.766 0.6428 30.9632 190.7024)" class="st36" cx="220" cy="62.2" rx="2.2" ry="4.2"/>
				</g>
				<circle class="st37" cx="202" cy="83.6" r="19.1"/>
				<path class="st38" d="M189.2,79.3c0-3.6,1.1-7,3.1-9.8c-4.4,3.1-7.2,8.2-7.2,13.9c0,9.4,7.6,17,17,17c5.8,0,10.8-2.9,13.9-7.2
					c-2.8,1.9-6.1,3.1-9.8,3.1C196.8,96.3,189.2,88.7,189.2,79.3z"/>
				<g>
					
						<ellipse transform="matrix(0.7071 -0.7071 0.7071 0.7071 10.4167 170.4408)" class="st38" cx="210.9" cy="72.6" rx="2.3" ry="4.7"/>
					
						<ellipse transform="matrix(0.1299 -0.9915 0.9915 0.1299 102.7088 288.9605)" class="st38" cx="216" cy="86" rx="3.5" ry="1.7"/>
					
						<ellipse transform="matrix(0.5872 -0.8094 0.8094 0.5872 7.7997 198.6798)" class="st38" cx="198.7" cy="91.7" rx="1.3" ry="2.7"/>
					
						<ellipse transform="matrix(0.909 -0.4169 0.4169 0.909 -14.8075 94.8524)" class="st38" cx="209.8" cy="81.3" rx="1.7" ry="2.2"/>
					<ellipse transform="matrix(0.5 -0.866 0.866 0.5 31.1553 206.2151)" class="st38" cx="194.2" cy="76.1" rx="3.3" ry="2.6"/>
				</g>
				<g>
					<path class="st35" d="M197.4,63.4l-1.7,0.4l2.5,7.8c0.1,0.3,0.6,0.5,1.2,0.4c0.6-0.1,1-0.5,0.9-0.8l-1.2-8.1L197.4,63.4z"/>
					
						<ellipse transform="matrix(0.9748 -0.2231 0.2231 0.9748 -9.0001 45.5853)" class="st36" cx="197.3" cy="62.6" rx="3.8" ry="1.7"/>
				</g>
				<g>
					<path class="st35" d="M188.8,61.9l-1.3,0.8l4,5.7c0.1,0.2,0.6,0.2,1.1,0c0.4-0.3,0.7-0.7,0.5-0.9l-3.1-6.3L188.8,61.9z"/>
					
						<ellipse transform="matrix(0.8603 -0.5097 0.5097 0.8603 -4.9663 104.6681)" class="st36" cx="188.5" cy="61.4" rx="3.2" ry="1.4"/>
				</g>
				<g>
					<path class="st35" d="M190,104.8l1.2,0.9l3.7-5.9c0.2-0.2,0-0.7-0.4-1c-0.4-0.3-0.9-0.4-1.1-0.1l-4.6,5.3L190,104.8z"/>
					
						<ellipse transform="matrix(0.5919 -0.806 0.806 0.5919 -7.5028 195.7731)" class="st36" cx="189.6" cy="105.3" rx="1.4" ry="3.2"/>
				</g>
				<g>
					<path class="st35" d="M222.5,98.6l0.9-1.2l-5.8-3.6c-0.2-0.2-0.7,0-1,0.5c-0.3,0.4-0.4,0.9-0.1,1.1l5.1,4.5L222.5,98.6z"/>
					<ellipse transform="matrix(0.5919 -0.806 0.806 0.5919 11.2011 220.0877)" class="st36" cx="223" cy="99" rx="3.2" ry="1.4"/>
				</g>
				<g>
					<path class="st35" d="M185.5,71.1l-1.1,1.4l6.9,4.4c0.3,0.2,0.8,0,1.2-0.5c0.4-0.5,0.4-1,0.2-1.3l-6.1-5.4L185.5,71.1z"/>
					
						<ellipse transform="matrix(0.6034 -0.7975 0.7975 0.6034 17.0077 175.4638)" class="st36" cx="184.9" cy="70.6" rx="3.8" ry="1.7"/>
				</g>
				<g>
					<path class="st35" d="M181.3,84.7l0.1,1.8l8.1-1.1c0.3,0,0.6-0.5,0.6-1.1c0-0.6-0.3-1.1-0.7-1.1l-8.2-0.2L181.3,84.7z"/>
					
						<ellipse transform="matrix(0.9987 -5.040388e-02 5.040388e-02 0.9987 -4.0409 9.2085)" class="st36" cx="180.6" cy="84.7" rx="1.7" ry="3.8"/>
				</g>
				<g>
					<path class="st35" d="M199.5,104.3l1.7,0.2l0.4-8.2c0-0.3-0.4-0.7-1-0.7c-0.6-0.1-1.1,0.1-1.2,0.5l-1.7,8L199.5,104.3z"/>
					
						<ellipse transform="matrix(0.1238 -0.9923 0.9923 0.1238 70.5139 289.9006)" class="st36" cx="199.4" cy="105" rx="1.7" ry="3.8"/>
				</g>
				<g>
					<path class="st35" d="M213.4,101.1l1.5-1l-5-6.5c-0.2-0.3-0.8-0.2-1.3,0.1s-0.8,0.8-0.6,1.1l3.9,7.2L213.4,101.1z"/>
					
						<ellipse transform="matrix(0.8397 -0.543 0.543 0.8397 -20.9779 132.3967)" class="st36" cx="213.8" cy="101.7" rx="3.8" ry="1.7"/>
				</g>
				<g>
					<path class="st35" d="M221.2,75.5l-0.7-1.6l-7.3,3.8c-0.3,0.1-0.4,0.7-0.1,1.3s0.7,0.9,1,0.8l7.8-2.6L221.2,75.5z"/>
					
						<ellipse transform="matrix(0.9213 -0.389 0.389 0.9213 -11.7949 92.249)" class="st36" cx="221.9" cy="75.3" rx="1.7" ry="3.8"/>
				</g>
				<g>
					<path class="st35" d="M210.2,66.6l-1.6-0.8l-3.2,7.6c-0.2,0.3,0.2,0.8,0.7,1.1c0.5,0.3,1.1,0.3,1.3,0l4.3-7L210.2,66.6z"/>
					
						<ellipse transform="matrix(0.4557 -0.8901 0.8901 0.4557 55.9653 223.2932)" class="st36" cx="210.6" cy="65.9" rx="1.7" ry="3.8"/>
				</g>
				
					<ellipse transform="matrix(0.7071 -0.7071 0.7071 0.7071 3.2808 162.7039)" class="st36" cx="198" cy="77.4" rx="3.5" ry="3.2"/>
				
					<ellipse transform="matrix(0.7328 -0.6805 0.6805 0.7328 -6.387 156.6099)" class="st36" cx="196.2" cy="86.4" rx="2.1" ry="2.4"/>
				
					<ellipse transform="matrix(0.7327 -0.6805 0.6805 0.7327 -2.1561 167.3833)" class="st36" cx="212" cy="86.4" rx="1.8" ry="1.6"/>
				
					<ellipse transform="matrix(0.7328 -0.6805 0.6805 0.7328 -6.5764 163.9722)" class="st36" cx="205.5" cy="90.4" rx="2.9" ry="2.6"/>
				
					<ellipse transform="matrix(0.7328 -0.6805 0.6805 0.7328 2.0915 161.6258)" class="st36" cx="206.8" cy="78.2" rx="1.5" ry="1.7"/>
				
					<ellipse transform="matrix(3.694829e-02 -0.9993 0.9993 3.694829e-02 111.7309 283.1157)" class="st36" cx="202.8" cy="83.6" rx="2.8" ry="2.5"/>
			</g>
			<g>
				<g>
					<path class="st35" d="M585.9,199.1l-0.5-1.4l-6.1,2.9c-0.3,0.1-0.3,0.6-0.1,1.1c0.2,0.5,0.6,0.8,0.8,0.7l6.5-1.9L585.9,199.1z"
						/>
					
						<ellipse transform="matrix(0.9337 -0.3581 0.3581 0.9337 -32.3352 223.2214)" class="st36" cx="586.5" cy="198.9" rx="1.4" ry="3.2"/>
				</g>
				<g>
					<path class="st35" d="M536.9,211.3l0.4,1.4l6.4-2.3c0.3-0.1,0.4-0.5,0.2-1c-0.1-0.5-0.5-0.8-0.7-0.8l-6.7,1.3L536.9,211.3z"/>
					
						<ellipse transform="matrix(0.9642 -0.2653 0.2653 0.9642 -36.8797 149.8895)" class="st36" cx="536.3" cy="211.4" rx="1.4" ry="3.2"/>
				</g>
				<g>
					<path class="st35" d="M561.4,178.3h-2l0.7,10.7c0,0.4,0.6,0.8,1.2,0.8c0.7,0,1.2-0.4,1.2-0.8l0.7-10.7H561.4z"/>
					<ellipse class="st36" cx="561.4" cy="177.4" rx="4.2" ry="2.2"/>
				</g>
				<g>
					<path class="st35" d="M537.2,193.5l-0.9,1.8l10,4.1c0.4,0.2,1-0.1,1.3-0.8c0.3-0.6,0.2-1.3-0.2-1.5l-9.3-5.3L537.2,193.5z"/>
					
						<ellipse transform="matrix(0.4384 -0.8988 0.8988 0.4384 127.6595 590.4525)" class="st36" cx="536.3" cy="193.1" rx="4.2" ry="2.2"/>
				</g>
				<g>
					<path class="st35" d="M540.2,222l1.2,1.5l8-7.2c0.4-0.3,0.3-0.9-0.1-1.5c-0.4-0.5-1-0.7-1.4-0.5l-8.9,6L540.2,222z"/>
					
						<ellipse transform="matrix(0.788 -0.6157 0.6157 0.788 -22.6884 379.2597)" class="st36" cx="539.4" cy="222.6" rx="2.2" ry="4.2"/>
				</g>
				<g>
					<path class="st35" d="M567.1,231.8l1.9-0.4L566,221c-0.1-0.4-0.7-0.7-1.4-0.5c-0.7,0.1-1.1,0.6-1,1l1.5,10.6L567.1,231.8z"/>
					
						<ellipse transform="matrix(0.9781 -0.2079 0.2079 0.9781 -35.9884 123.0193)" class="st36" cx="567.3" cy="232.7" rx="4.2" ry="2.2"/>
				</g>
				<g>
					<path class="st35" d="M587.6,211.9l0.5-1.9l-10.6-1.9c-0.4-0.1-0.9,0.3-1.1,1c-0.2,0.7,0.1,1.3,0.5,1.4l10.2,3.3L587.6,211.9z"
						/>
					
						<ellipse transform="matrix(0.2419 -0.9703 0.9703 0.2419 240.3825 731.9091)" class="st36" cx="588.6" cy="212.1" rx="4.2" ry="2.2"/>
				</g>
				<g>
					<path class="st35" d="M578.8,184.7l-1.5-1.3l-6.3,8.7c-0.3,0.3-0.1,1,0.4,1.4c0.5,0.4,1.2,0.5,1.5,0.2l7.4-7.8L578.8,184.7z"/>
					
						<ellipse transform="matrix(0.6428 -0.766 0.766 0.6428 66.0951 509.5591)" class="st36" cx="579.4" cy="183.9" rx="2.2" ry="4.2"/>
				</g>
				<circle class="st37" cx="561.4" cy="205.3" r="19.1"/>
				<path class="st38" d="M548.7,201.1c0-3.6,1.1-7,3.1-9.8c-4.4,3.1-7.2,8.2-7.2,13.9c0,9.4,7.6,17,17,17c5.8,0,10.8-2.9,13.9-7.2
					c-2.8,1.9-6.1,3.1-9.8,3.1C556.3,218.1,548.7,210.5,548.7,201.1z"/>
				<g>
					
						<ellipse transform="matrix(0.7071 -0.7071 0.7071 0.7071 29.6048 460.2809)" class="st38" cx="570.4" cy="194.4" rx="2.3" ry="4.7"/>
					
						<ellipse transform="matrix(0.1299 -0.9915 0.9915 0.1299 294.7641 751.3251)" class="st38" cx="575.5" cy="207.7" rx="3.5" ry="1.7"/>
					
						<ellipse transform="matrix(0.5873 -0.8094 0.8094 0.5873 57.6024 539.8646)" class="st38" cx="558.2" cy="213.5" rx="1.3" ry="2.7"/>
					
						<ellipse transform="matrix(0.9089 -0.4169 0.4169 0.9089 -32.8388 255.8141)" class="st38" cx="569.2" cy="203.1" rx="1.7" ry="2.2"/>
					<ellipse transform="matrix(0.5 -0.866 0.866 0.5 105.4365 578.3921)" class="st38" cx="553.6" cy="197.9" rx="3.3" ry="2.6"/>
				</g>
				<g>
					<path class="st35" d="M556.9,185.1l-1.7,0.4l2.5,7.8c0.1,0.3,0.6,0.5,1.2,0.4c0.6-0.1,1-0.5,0.9-0.8l-1.2-8.1L556.9,185.1z"/>
					
						<ellipse transform="matrix(0.9748 -0.2231 0.2231 0.9748 -27.1035 128.8431)" class="st36" cx="556.7" cy="184.4" rx="3.8" ry="1.7"/>
				</g>
				<g>
					<path class="st35" d="M548.3,183.7l-1.3,0.8l4,5.7c0.1,0.2,0.6,0.2,1.1,0s0.7-0.7,0.5-0.9l-3.1-6.3L548.3,183.7z"/>
					
						<ellipse transform="matrix(0.8603 -0.5097 0.5097 0.8603 -16.8266 304.8967)" class="st36" cx="548" cy="183.2" rx="3.2" ry="1.4"/>
				</g>
				<g>
					<path class="st35" d="M549.4,226.5l1.2,0.9l3.7-5.9c0.2-0.2,0-0.7-0.4-1c-0.4-0.3-0.9-0.4-1.1-0.1l-4.6,5.3L549.4,226.5z"/>
					
						<ellipse transform="matrix(0.5919 -0.806 0.806 0.5919 41.0501 535.1861)" class="st36" cx="549" cy="227.1" rx="1.4" ry="3.2"/>
				</g>
				<g>
					<path class="st35" d="M581.9,220.4l0.9-1.2l-5.8-3.6c-0.2-0.2-0.7,0-1,0.5c-0.3,0.4-0.4,0.9-0.1,1.1l5.1,4.5L581.9,220.4z"/>
					
						<ellipse transform="matrix(0.5919 -0.806 0.806 0.5919 59.7513 559.4964)" class="st36" cx="582.4" cy="220.7" rx="3.2" ry="1.4"/>
				</g>
				<g>
					<path class="st35" d="M545,192.8l-1.1,1.4l6.9,4.4c0.3,0.2,0.8,0,1.2-0.5s0.4-1,0.2-1.3l-6.1-5.4L545,192.8z"/>
					
						<ellipse transform="matrix(0.6034 -0.7975 0.7975 0.6034 62.4901 510.4229)" class="st36" cx="544.4" cy="192.4" rx="3.8" ry="1.7"/>
				</g>
				<g>
					<path class="st35" d="M540.8,206.4l0.1,1.8l8.1-1.1c0.3,0,0.6-0.5,0.6-1.1c0-0.6-0.3-1.1-0.7-1.1l-8.2-0.2L540.8,206.4z"/>
					
						<ellipse transform="matrix(0.9987 -5.041768e-02 5.041768e-02 0.9987 -9.7235 27.4891)" class="st36" cx="540" cy="206.5" rx="1.7" ry="3.8"/>
				</g>
				<g>
					<path class="st35" d="M559,226l1.7,0.2l0.4-8.2c0-0.3-0.4-0.7-1-0.7c-0.6-0.1-1.1,0.1-1.2,0.5l-1.7,8L559,226z"/>
					
						<ellipse transform="matrix(0.1238 -0.9923 0.9923 0.1238 264.6573 753.2834)" class="st36" cx="558.9" cy="226.8" rx="1.7" ry="3.8"/>
				</g>
				<g>
					<path class="st35" d="M572.8,222.9l1.5-1l-5-6.5c-0.2-0.3-0.8-0.2-1.3,0.1c-0.5,0.3-0.8,0.8-0.6,1.1l3.9,7.2L572.8,222.9z"/>
					
						<ellipse transform="matrix(0.8397 -0.543 0.543 0.8397 -29.4807 347.1042)" class="st36" cx="573.2" cy="223.5" rx="3.8" ry="1.7"/>
				</g>
				<g>
					<path class="st35" d="M580.7,197.3l-0.7-1.6l-7.3,3.8c-0.3,0.1-0.4,0.7-0.1,1.3c0.2,0.6,0.7,0.9,1,0.8l7.8-2.6L580.7,197.3z"/>
					
						<ellipse transform="matrix(0.9213 -0.389 0.389 0.9213 -30.8477 241.6557)" class="st36" cx="581.4" cy="197" rx="1.7" ry="3.8"/>
				</g>
				<g>
					<path class="st35" d="M569.7,188.3l-1.6-0.8l-3.2,7.6c-0.2,0.3,0.2,0.8,0.7,1.1c0.5,0.3,1.1,0.3,1.3,0l4.3-7L569.7,188.3z"/>
					
						<ellipse transform="matrix(0.4557 -0.8901 0.8901 0.4557 143.2416 609.537)" class="st36" cx="570" cy="187.6" rx="1.7" ry="3.8"/>
				</g>
				
					<ellipse transform="matrix(0.7071 -0.7071 0.7071 0.7071 22.466 452.5378)" class="st36" cx="557.5" cy="199.1" rx="3.5" ry="3.2"/>
				
					<ellipse transform="matrix(0.7327 -0.6805 0.6805 0.7327 6.8259 433.7697)" class="st36" cx="555.7" cy="208.2" rx="2.1" ry="2.4"/>
				
					<ellipse transform="matrix(0.7327 -0.6805 0.6805 0.7327 11.0542 444.5365)" class="st36" cx="571.5" cy="208.2" rx="1.8" ry="1.6"/>
				
					<ellipse transform="matrix(0.7327 -0.6805 0.6805 0.7327 6.6351 441.1287)" class="st36" cx="564.9" cy="212.1" rx="2.9" ry="2.6"/>
				
					<ellipse transform="matrix(0.7327 -0.6805 0.6805 0.7327 15.3075 438.792)" class="st36" cx="566.3" cy="199.9" rx="1.5" ry="1.7"/>
				
					<ellipse transform="matrix(3.694754e-02 -0.9993 0.9993 3.694754e-02 336.2368 759.5914)" class="st36" cx="562.2" cy="205.3" rx="2.8" ry="2.5"/>
			</g>
			<g>
				<g>
					<path class="st35" d="M682.1,120.5l-0.5-1.4l-6.1,2.9c-0.3,0.1-0.3,0.6-0.1,1.1c0.2,0.5,0.6,0.8,0.8,0.7l6.5-1.9L682.1,120.5z"
						/>
					
						<ellipse transform="matrix(0.9337 -0.3581 0.3581 0.9337 2.2018 252.4486)" class="st36" cx="682.6" cy="120.3" rx="1.4" ry="3.2"/>
				</g>
				<g>
					<path class="st35" d="M633.1,132.7l0.4,1.4l6.4-2.3c0.3-0.1,0.4-0.5,0.2-1c-0.1-0.5-0.5-0.8-0.7-0.8l-6.7,1.3L633.1,132.7z"/>
					
						<ellipse transform="matrix(0.9642 -0.2653 0.2653 0.9642 -12.5703 172.5856)" class="st36" cx="632.5" cy="132.8" rx="1.4" ry="3.2"/>
				</g>
				<g>
					<path class="st35" d="M657.6,99.7h-2l0.7,10.7c0,0.4,0.6,0.8,1.2,0.8c0.7,0,1.2-0.4,1.2-0.8l0.7-10.7H657.6z"/>
					<ellipse class="st36" cx="657.6" cy="98.7" rx="4.2" ry="2.2"/>
				</g>
				<g>
					<path class="st35" d="M633.3,114.9l-0.9,1.8l10,4.1c0.4,0.2,1-0.1,1.3-0.8c0.3-0.6,0.2-1.3-0.2-1.5l-9.3-5.3L633.3,114.9z"/>
					
						<ellipse transform="matrix(0.4384 -0.8988 0.8988 0.4384 252.3425 632.7333)" class="st36" cx="632.5" cy="114.5" rx="4.2" ry="2.2"/>
				</g>
				<g>
					<path class="st35" d="M636.3,143.3l1.2,1.5l8-7.2c0.4-0.3,0.3-0.9-0.1-1.5c-0.4-0.5-1-0.7-1.4-0.5l-8.9,6L636.3,143.3z"/>
					
						<ellipse transform="matrix(0.788 -0.6157 0.6157 0.788 46.1056 421.8023)" class="st36" cx="635.6" cy="144" rx="2.2" ry="4.2"/>
				</g>
				<g>
					<path class="st35" d="M663.2,153.1l1.9-0.4l-2.9-10.3c-0.1-0.4-0.7-0.7-1.4-0.5c-0.7,0.1-1.1,0.6-1,1l1.5,10.6L663.2,153.1z"/>
					
						<ellipse transform="matrix(0.9781 -0.2079 0.2079 0.9781 -17.5407 141.3038)" class="st36" cx="663.4" cy="154.1" rx="4.2" ry="2.2"/>
				</g>
				<g>
					<path class="st35" d="M683.8,133.3l0.5-1.9l-10.6-1.9c-0.4-0.1-0.9,0.3-1.1,1c-0.2,0.7,0.1,1.3,0.5,1.4l10.2,3.3L683.8,133.3z"
						/>
					
						<ellipse transform="matrix(0.2419 -0.9703 0.9703 0.2419 389.579 765.6208)" class="st36" cx="684.8" cy="133.5" rx="4.2" ry="2.2"/>
				</g>
				<g>
					<path class="st35" d="M675,106l-1.5-1.3l-6.3,8.7c-0.3,0.3-0.1,1,0.4,1.4c0.5,0.4,1.2,0.5,1.5,0.2l7.4-7.8L675,106z"/>
					
						<ellipse transform="matrix(0.6428 -0.766 0.766 0.6428 160.6749 555.1405)" class="st36" cx="675.6" cy="105.3" rx="2.2" ry="4.2"/>
				</g>
				<circle class="st37" cx="657.6" cy="126.7" r="19.1"/>
				<path class="st38" d="M644.9,122.5c0-3.6,1.1-7,3.1-9.8c-4.4,3.1-7.2,8.2-7.2,13.9c0,9.4,7.6,17,17,17c5.8,0,10.8-2.9,13.9-7.2
					c-2.8,1.9-6.1,3.1-9.8,3.1C652.5,139.5,644.9,131.9,644.9,122.5z"/>
				<g>
					
						<ellipse transform="matrix(0.7071 -0.7071 0.7071 0.7071 113.3697 505.2564)" class="st38" cx="666.6" cy="115.8" rx="2.3" ry="4.7"/>
					
						<ellipse transform="matrix(0.1299 -0.9915 0.9915 0.1299 456.4052 778.2675)" class="st38" cx="671.6" cy="129.1" rx="3.5" ry="1.7"/>
					
						<ellipse transform="matrix(0.5873 -0.8094 0.8094 0.5873 160.933 585.2549)" class="st38" cx="654.3" cy="134.8" rx="1.3" ry="2.7"/>
					
						<ellipse transform="matrix(0.9089 -0.4169 0.4169 0.9089 8.6995 288.7513)" class="st38" cx="665.4" cy="124.5" rx="1.7" ry="2.2"/>
					<ellipse transform="matrix(0.5 -0.866 0.866 0.5 221.6137 622.3682)" class="st38" cx="649.8" cy="119.3" rx="3.3" ry="2.6"/>
				</g>
				<g>
					<path class="st35" d="M653.1,106.5l-1.7,0.4l2.5,7.8c0.1,0.3,0.6,0.5,1.2,0.4c0.6-0.1,1-0.5,0.9-0.8l-1.2-8.1L653.1,106.5z"/>
					
						<ellipse transform="matrix(0.9748 -0.2231 0.2231 0.9748 -7.1403 148.3136)" class="st36" cx="652.9" cy="105.8" rx="3.8" ry="1.7"/>
				</g>
				<g>
					<path class="st35" d="M644.5,105.1l-1.3,0.8l4,5.7c0.1,0.2,0.6,0.2,1.1,0c0.4-0.3,0.7-0.7,0.5-0.9l-3.1-6.3L644.5,105.1z"/>
					
						<ellipse transform="matrix(0.8603 -0.5097 0.5097 0.8603 36.6781 342.9282)" class="st36" cx="644.2" cy="104.5" rx="3.2" ry="1.4"/>
				</g>
				<g>
					<path class="st35" d="M645.6,147.9l1.2,0.9l3.7-5.9c0.2-0.2,0-0.7-0.4-1c-0.4-0.3-0.9-0.4-1.1-0.1l-4.6,5.3L645.6,147.9z"/>
					
						<ellipse transform="matrix(0.5919 -0.806 0.806 0.5919 143.6625 580.6094)" class="st36" cx="645.2" cy="148.4" rx="1.4" ry="3.2"/>
				</g>
				<g>
					<path class="st35" d="M678.1,141.7l0.9-1.2l-5.8-3.6c-0.2-0.2-0.7,0-1,0.5c-0.3,0.4-0.4,0.9-0.1,1.1l5.1,4.5L678.1,141.7z"/>
					
						<ellipse transform="matrix(0.5919 -0.806 0.806 0.5919 162.367 604.925)" class="st36" cx="678.6" cy="142.1" rx="3.2" ry="1.4"/>
				</g>
				<g>
					<path class="st35" d="M641.1,114.2l-1.1,1.4l6.9,4.4c0.3,0.2,0.8,0,1.2-0.5c0.4-0.5,0.4-1,0.2-1.3l-6.1-5.4L641.1,114.2z"/>
					
						<ellipse transform="matrix(0.6034 -0.7975 0.7975 0.6034 163.3388 555.9316)" class="st36" cx="640.5" cy="113.8" rx="3.8" ry="1.7"/>
				</g>
				<g>
					<path class="st35" d="M636.9,127.8l0.1,1.8l8.1-1.1c0.3,0,0.6-0.5,0.6-1.1c0-0.6-0.3-1.1-0.7-1.1l-8.2-0.2L636.9,127.8z"/>
					
						<ellipse transform="matrix(0.9987 -5.041598e-02 5.041598e-02 0.9987 -5.6369 32.2368)" class="st36" cx="636.2" cy="127.9" rx="1.7" ry="3.8"/>
				</g>
				<g>
					<path class="st35" d="M655.1,147.4l1.7,0.2l0.4-8.2c0-0.3-0.4-0.7-1-0.7c-0.6-0.1-1.1,0.1-1.2,0.5l-1.7,8L655.1,147.4z"/>
					
						<ellipse transform="matrix(0.1238 -0.9923 0.9923 0.1238 426.9458 779.8238)" class="st36" cx="655" cy="148.2" rx="1.7" ry="3.8"/>
				</g>
				<g>
					<path class="st35" d="M669,144.2l1.5-1l-5-6.5c-0.2-0.3-0.8-0.2-1.3,0.1c-0.5,0.3-0.8,0.8-0.6,1.1l3.9,7.2L669,144.2z"/>
					
						<ellipse transform="matrix(0.8397 -0.543 0.543 0.8397 28.6293 386.7263)" class="st36" cx="669.4" cy="144.9" rx="3.8" ry="1.7"/>
				</g>
				<g>
					<path class="st35" d="M676.9,118.7l-0.7-1.6l-7.3,3.8c-0.3,0.1-0.4,0.7-0.1,1.3c0.2,0.6,0.7,0.9,1,0.8l7.8-2.6L676.9,118.7z"/>
					
						<ellipse transform="matrix(0.9213 -0.389 0.389 0.9213 7.3072 272.8684)" class="st36" cx="677.6" cy="118.4" rx="1.7" ry="3.8"/>
				</g>
				<g>
					<path class="st35" d="M665.9,109.7l-1.6-0.8l-3.2,7.6c-0.2,0.3,0.2,0.8,0.7,1.1c0.5,0.3,1.1,0.3,1.3,0l4.3-7L665.9,109.7z"/>
					
						<ellipse transform="matrix(0.4557 -0.8901 0.8901 0.4557 265.5692 652.3431)" class="st36" cx="666.2" cy="109" rx="1.7" ry="3.8"/>
				</g>
				
					<ellipse transform="matrix(0.7071 -0.7071 0.7071 0.7071 106.2296 497.5133)" class="st36" cx="653.7" cy="120.5" rx="3.5" ry="3.2"/>
				
					<ellipse transform="matrix(0.7327 -0.6805 0.6805 0.7327 86.0339 478.2026)" class="st36" cx="651.8" cy="129.6" rx="2.1" ry="2.4"/>
				
					<ellipse transform="matrix(0.7327 -0.6805 0.6805 0.7327 90.2622 488.9707)" class="st36" cx="667.7" cy="129.6" rx="1.8" ry="1.6"/>
				
					<ellipse transform="matrix(0.7327 -0.6805 0.6805 0.7327 85.842 485.5615)" class="st36" cx="661.1" cy="133.5" rx="2.9" ry="2.6"/>
				
					<ellipse transform="matrix(0.7327 -0.6805 0.6805 0.7327 94.516 483.2238)" class="st36" cx="662.5" cy="121.3" rx="1.5" ry="1.7"/>
				
					<ellipse transform="matrix(3.694754e-02 -0.9993 0.9993 3.694754e-02 507.4281 779.9781)" class="st36" cx="658.4" cy="126.7" rx="2.8" ry="2.5"/>
			</g>
			<g>
				<g>
					<path class="st35" d="M162.6,389.6l-0.5-1.4l-6.1,2.9c-0.3,0.1-0.3,0.6-0.1,1.1c0.2,0.5,0.6,0.8,0.8,0.7l6.5-1.9L162.6,389.6z"
						/>
					
						<ellipse transform="matrix(0.9337 -0.3581 0.3581 0.9337 -128.6052 84.2687)" class="st36" cx="163.2" cy="389.3" rx="1.4" ry="3.2"/>
				</g>
				<g>
					<path class="st35" d="M113.7,401.7l0.4,1.4l6.4-2.3c0.3-0.1,0.4-0.5,0.2-1c-0.1-0.5-0.5-0.8-0.7-0.8l-6.7,1.3L113.7,401.7z"/>
					
						<ellipse transform="matrix(0.9642 -0.2653 0.2653 0.9642 -102.5708 44.4032)" class="st36" cx="113.1" cy="401.9" rx="1.4" ry="3.2"/>
				</g>
				<g>
					<path class="st35" d="M138.2,368.8h-2l0.7,10.7c0,0.4,0.6,0.8,1.2,0.8c0.7,0,1.2-0.4,1.2-0.8l0.7-10.7H138.2z"/>
					<ellipse class="st36" cx="138.2" cy="367.8" rx="4.2" ry="2.2"/>
				</g>
				<g>
					<path class="st35" d="M113.9,383.9l-0.9,1.8l10,4.1c0.4,0.2,1-0.1,1.3-0.8c0.3-0.6,0.2-1.3-0.2-1.5l-9.3-5.3L113.9,383.9z"/>
					
						<ellipse transform="matrix(0.4384 -0.8988 0.8988 0.4384 -281.2132 316.9724)" class="st36" cx="113" cy="383.5" rx="4.2" ry="2.2"/>
				</g>
				<g>
					<path class="st35" d="M116.9,412.4l1.2,1.5l8-7.2c0.4-0.3,0.3-0.9-0.1-1.5c-0.4-0.5-1-0.7-1.4-0.5l-8.9,6L116.9,412.4z"/>
					
						<ellipse transform="matrix(0.788 -0.6157 0.6157 0.788 -229.6499 159.0415)" class="st36" cx="116.1" cy="413" rx="2.2" ry="4.2"/>
				</g>
				<g>
					<path class="st35" d="M143.8,422.2l1.9-0.4l-2.9-10.3c-0.1-0.4-0.7-0.7-1.4-0.5c-0.7,0.1-1.1,0.6-1,1l1.5,10.6L143.8,422.2z"/>
					
						<ellipse transform="matrix(0.9781 -0.2079 0.2079 0.9781 -84.8263 39.1824)" class="st36" cx="144" cy="423.1" rx="4.2" ry="2.2"/>
				</g>
				<g>
					<path class="st35" d="M164.4,402.3l0.5-1.9l-10.6-1.9c-0.4-0.1-0.9,0.3-1.1,1c-0.2,0.7,0.1,1.3,0.5,1.4l10.2,3.3L164.4,402.3z"
						/>
					
						<ellipse transform="matrix(0.2419 -0.9703 0.9703 0.2419 -265.2503 465.5735)" class="st36" cx="165.3" cy="402.5" rx="4.2" ry="2.2"/>
				</g>
				<g>
					<path class="st35" d="M155.5,375.1l-1.5-1.3l-6.3,8.7c-0.3,0.3-0.1,1,0.4,1.4c0.5,0.4,1.2,0.5,1.5,0.2l7.4-7.8L155.5,375.1z"/>
					
						<ellipse transform="matrix(0.6428 -0.766 0.766 0.6428 -230.9705 253.3421)" class="st36" cx="156.2" cy="374.3" rx="2.2" ry="4.2"/>
				</g>
				<circle class="st37" cx="138.2" cy="395.8" r="19.1"/>
				<path class="st38" d="M125.4,391.5c0-3.6,1.1-7,3.1-9.8c-4.4,3.1-7.2,8.2-7.2,13.9c0,9.4,7.6,17,17,17c5.8,0,10.8-2.9,13.9-7.2
					c-2.8,1.9-6.1,3.1-9.8,3.1C133,408.5,125.4,400.9,125.4,391.5z"/>
				<g>
					
						<ellipse transform="matrix(0.7071 -0.7071 0.7071 0.7071 -229.0149 216.7619)" class="st38" cx="147.1" cy="384.8" rx="2.3" ry="4.7"/>
					
						<ellipse transform="matrix(0.1299 -0.9915 0.9915 0.1299 -262.3444 497.3383)" class="st38" cx="152.2" cy="398.1" rx="3.5" ry="1.7"/>
					
						<ellipse transform="matrix(0.5873 -0.8094 0.8094 0.5873 -271.2123 275.8756)" class="st38" cx="134.9" cy="403.9" rx="1.3" ry="2.7"/>
					
						<ellipse transform="matrix(0.9089 -0.4169 0.4169 0.9089 -150.7725 96.6848)" class="st38" cx="146" cy="393.5" rx="1.7" ry="2.2"/>
					<ellipse transform="matrix(0.5 -0.866 0.866 0.5 -271.1001 307.0482)" class="st38" cx="130.4" cy="388.3" rx="3.3" ry="2.6"/>
				</g>
				<g>
					<path class="st35" d="M133.6,375.5l-1.7,0.4l2.5,7.8c0.1,0.3,0.6,0.5,1.2,0.4s1-0.5,0.9-0.8l-1.2-8.1L133.6,375.5z"/>
					
						<ellipse transform="matrix(0.9748 -0.2231 0.2231 0.9748 -80.2485 39.2196)" class="st36" cx="133.5" cy="374.8" rx="3.8" ry="1.7"/>
				</g>
				<g>
					<path class="st35" d="M125,374.1l-1.3,0.8l4,5.7c0.1,0.2,0.6,0.2,1.1,0c0.4-0.3,0.7-0.7,0.5-0.9l-3.1-6.3L125,374.1z"/>
					
						<ellipse transform="matrix(0.8603 -0.5097 0.5097 0.8603 -172.9974 115.7424)" class="st36" cx="124.7" cy="373.6" rx="3.2" ry="1.4"/>
				</g>
				<g>
					<path class="st35" d="M126.2,417l1.2,0.9l3.7-5.9c0.2-0.2,0-0.7-0.4-1s-0.9-0.4-1.1-0.1l-4.6,5.3L126.2,417z"/>
					
						<ellipse transform="matrix(0.5919 -0.806 0.806 0.5919 -285.1508 271.7373)" class="st36" cx="125.8" cy="417.5" rx="1.4" ry="3.2"/>
				</g>
				<g>
					<path class="st35" d="M158.6,410.8l0.9-1.2l-5.8-3.6c-0.2-0.2-0.7,0-1,0.5c-0.3,0.4-0.4,0.9-0.1,1.1l5.1,4.5L158.6,410.8z"/>
					
						<ellipse transform="matrix(0.5919 -0.806 0.806 0.5919 -266.4476 296.0563)" class="st36" cx="159.2" cy="411.2" rx="3.2" ry="1.4"/>
				</g>
				<g>
					<path class="st35" d="M121.7,383.3l-1.1,1.4l6.9,4.4c0.3,0.2,0.8,0,1.2-0.5s0.4-1,0.2-1.3l-6.1-5.4L121.7,383.3z"/>
					
						<ellipse transform="matrix(0.6034 -0.7975 0.7975 0.6034 -257.2536 248.4103)" class="st36" cx="121.1" cy="382.8" rx="3.8" ry="1.7"/>
				</g>
				<g>
					<path class="st35" d="M117.5,396.9l0.1,1.8l8.1-1.1c0.3,0,0.6-0.5,0.6-1.1c0-0.6-0.3-1.1-0.7-1.1l-8.2-0.2L117.5,396.9z"/>
					
						<ellipse transform="matrix(0.9987 -5.040848e-02 5.040848e-02 0.9987 -19.8589 6.3901)" class="st36" cx="116.8" cy="396.9" rx="1.7" ry="3.8"/>
				</g>
				<g>
					<path class="st35" d="M135.7,416.5l1.7,0.2l0.4-8.2c0-0.3-0.4-0.7-1-0.7c-0.6-0.1-1.1,0.1-1.2,0.5l-1.7,8L135.7,416.5z"/>
					
						<ellipse transform="matrix(0.1238 -0.9923 0.9923 0.1238 -295.169 500.1263)" class="st36" cx="135.6" cy="417.2" rx="1.7" ry="3.8"/>
				</g>
				<g>
					<path class="st35" d="M149.6,413.3l1.5-1l-5-6.5c-0.2-0.3-0.8-0.2-1.3,0.1c-0.5,0.3-0.8,0.8-0.6,1.1l3.9,7.2L149.6,413.3z"/>
					
						<ellipse transform="matrix(0.8397 -0.543 0.543 0.8397 -200.7245 147.785)" class="st36" cx="150" cy="413.9" rx="3.8" ry="1.7"/>
				</g>
				<g>
					<path class="st35" d="M157.4,387.7l-0.7-1.6l-7.3,3.8c-0.3,0.1-0.4,0.7-0.1,1.3c0.2,0.6,0.7,0.9,1,0.8l7.8-2.6L157.4,387.7z"/>
					
						<ellipse transform="matrix(0.9213 -0.389 0.389 0.9213 -138.244 92.0154)" class="st36" cx="158.1" cy="387.4" rx="1.7" ry="3.8"/>
				</g>
				<g>
					<path class="st35" d="M146.4,378.7l-1.6-0.8l-3.2,7.6c-0.2,0.3,0.2,0.8,0.7,1.1c0.5,0.3,1.1,0.3,1.3,0l4.3-7L146.4,378.7z"/>
					
						<ellipse transform="matrix(0.4557 -0.8901 0.8901 0.4557 -256.6419 336.4231)" class="st36" cx="146.8" cy="378.1" rx="1.7" ry="3.8"/>
				</g>
				
					<ellipse transform="matrix(0.7071 -0.7071 0.7071 0.7071 -236.15 209.0232)" class="st36" cx="134.2" cy="389.6" rx="3.5" ry="3.2"/>
				
					<ellipse transform="matrix(0.7327 -0.6805 0.6805 0.7327 -235.8756 196.6248)" class="st36" cx="132.4" cy="398.6" rx="2.1" ry="2.4"/>
				
					<ellipse transform="matrix(0.7327 -0.6805 0.6805 0.7327 -231.6464 207.3976)" class="st36" cx="148.2" cy="398.6" rx="1.8" ry="1.6"/>
				
					<ellipse transform="matrix(0.7328 -0.6805 0.6805 0.7328 -236.0619 203.9836)" class="st36" cx="141.7" cy="402.5" rx="2.9" ry="2.6"/>
				
					<ellipse transform="matrix(0.7327 -0.6805 0.6805 0.7327 -227.4008 201.6476)" class="st36" cx="143" cy="390.3" rx="1.5" ry="1.7"/>
				
					<ellipse transform="matrix(3.694829e-02 -0.9993 0.9993 3.694829e-02 -261.6801 520.0034)" class="st36" cx="139" cy="395.8" rx="2.8" ry="2.5"/>
			</g>
		</g>
	</g>
</g>
</svg>
